<svg width="546" height="500" viewBox="0 0 546 500" fill="none" xmlns="http://www.w3.org/2000/svg">
<ellipse cx="2.03329" cy="2.32726" rx="2.03329" ry="2.32726" fill="#EFEFEF"/>
<ellipse cx="19.6554" cy="2.32726" rx="2.03329" ry="2.32726" fill="#EFEFEF"/>
<ellipse cx="37.2774" cy="2.32726" rx="2.03329" ry="2.32726" fill="#EFEFEF"/>
<ellipse cx="54.8976" cy="2.32726" rx="2.03329" ry="2.32726" fill="#EFEFEF"/>
<ellipse cx="72.5196" cy="2.32726" rx="2.03329" ry="2.32726" fill="#EFEFEF"/>
<ellipse cx="90.1417" cy="2.32726" rx="2.03329" ry="2.32726" fill="#EFEFEF"/>
<ellipse cx="107.764" cy="2.32726" rx="2.03329" ry="2.32726" fill="#EFEFEF"/>
<ellipse cx="125.386" cy="2.32726" rx="2.03329" ry="2.32726" fill="#EFEFEF"/>
<ellipse cx="143.008" cy="2.32726" rx="2.03329" ry="2.32726" fill="#EFEFEF"/>
<ellipse cx="160.63" cy="2.32726" rx="2.03329" ry="2.32726" fill="#EFEFEF"/>
<ellipse cx="178.253" cy="2.32726" rx="2.03329" ry="2.32726" fill="#EFEFEF"/>
<ellipse cx="195.873" cy="2.32726" rx="2.03329" ry="2.32726" fill="#EFEFEF"/>
<ellipse cx="213.495" cy="2.32726" rx="2.03329" ry="2.32726" fill="#EFEFEF"/>
<ellipse cx="231.117" cy="2.32726" rx="2.03329" ry="2.32726" fill="#EFEFEF"/>
<ellipse cx="2.03329" cy="22.4969" rx="2.03329" ry="2.32726" fill="#EFEFEF"/>
<ellipse cx="19.6554" cy="22.4969" rx="2.03329" ry="2.32726" fill="#EFEFEF"/>
<ellipse cx="37.2779" cy="22.4969" rx="2.03329" ry="2.32726" fill="#EFEFEF"/>
<ellipse cx="54.8976" cy="22.4969" rx="2.03329" ry="2.32726" fill="#EFEFEF"/>
<ellipse cx="72.5196" cy="22.4969" rx="2.03329" ry="2.32726" fill="#EFEFEF"/>
<ellipse cx="90.1417" cy="22.4969" rx="2.03329" ry="2.32726" fill="#EFEFEF"/>
<ellipse cx="107.764" cy="22.4969" rx="2.03329" ry="2.32726" fill="#EFEFEF"/>
<ellipse cx="125.386" cy="22.4969" rx="2.03329" ry="2.32726" fill="#EFEFEF"/>
<ellipse cx="143.008" cy="22.4969" rx="2.03329" ry="2.32726" fill="#EFEFEF"/>
<ellipse cx="160.63" cy="22.4969" rx="2.03329" ry="2.32726" fill="#EFEFEF"/>
<ellipse cx="178.253" cy="22.4969" rx="2.03329" ry="2.32726" fill="#EFEFEF"/>
<ellipse cx="195.873" cy="22.4969" rx="2.03329" ry="2.32726" fill="#EFEFEF"/>
<ellipse cx="213.495" cy="22.4969" rx="2.03329" ry="2.32726" fill="#EFEFEF"/>
<ellipse cx="231.117" cy="22.4969" rx="2.03329" ry="2.32726" fill="#EFEFEF"/>
<ellipse cx="2.03329" cy="42.6666" rx="2.03329" ry="2.32726" fill="#EFEFEF"/>
<ellipse cx="19.6554" cy="42.6666" rx="2.03329" ry="2.32726" fill="#EFEFEF"/>
<ellipse cx="37.2779" cy="42.6666" rx="2.03329" ry="2.32726" fill="#EFEFEF"/>
<ellipse cx="54.8976" cy="42.6666" rx="2.03329" ry="2.32726" fill="#EFEFEF"/>
<ellipse cx="72.5196" cy="42.6666" rx="2.03329" ry="2.32726" fill="#EFEFEF"/>
<ellipse cx="90.1417" cy="42.6666" rx="2.03329" ry="2.32726" fill="#EFEFEF"/>
<ellipse cx="107.764" cy="42.6666" rx="2.03329" ry="2.32726" fill="#EFEFEF"/>
<ellipse cx="125.386" cy="42.6666" rx="2.03329" ry="2.32726" fill="#EFEFEF"/>
<ellipse cx="143.008" cy="42.6666" rx="2.03329" ry="2.32726" fill="#EFEFEF"/>
<ellipse cx="160.63" cy="42.6666" rx="2.03329" ry="2.32726" fill="#EFEFEF"/>
<ellipse cx="178.253" cy="42.6666" rx="2.03329" ry="2.32726" fill="#EFEFEF"/>
<ellipse cx="195.873" cy="42.6666" rx="2.03329" ry="2.32726" fill="#EFEFEF"/>
<ellipse cx="213.495" cy="42.6666" rx="2.03329" ry="2.32726" fill="#EFEFEF"/>
<ellipse cx="231.117" cy="42.6666" rx="2.03329" ry="2.32726" fill="#EFEFEF"/>
<ellipse cx="2.03329" cy="62.8361" rx="2.03329" ry="2.32726" fill="#EFEFEF"/>
<ellipse cx="19.6554" cy="62.8361" rx="2.03329" ry="2.32726" fill="#EFEFEF"/>
<ellipse cx="37.2779" cy="62.8361" rx="2.03329" ry="2.32726" fill="#EFEFEF"/>
<ellipse cx="54.8976" cy="62.8361" rx="2.03329" ry="2.32726" fill="#EFEFEF"/>
<ellipse cx="72.5196" cy="62.8361" rx="2.03329" ry="2.32726" fill="#EFEFEF"/>
<ellipse cx="90.1417" cy="62.8361" rx="2.03329" ry="2.32726" fill="#EFEFEF"/>
<ellipse cx="107.764" cy="62.8361" rx="2.03329" ry="2.32726" fill="#EFEFEF"/>
<ellipse cx="125.386" cy="62.8361" rx="2.03329" ry="2.32726" fill="#EFEFEF"/>
<ellipse cx="143.008" cy="62.8361" rx="2.03329" ry="2.32726" fill="#EFEFEF"/>
<ellipse cx="160.63" cy="62.8361" rx="2.03329" ry="2.32726" fill="#EFEFEF"/>
<ellipse cx="178.253" cy="62.8361" rx="2.03329" ry="2.32726" fill="#EFEFEF"/>
<ellipse cx="195.873" cy="62.8361" rx="2.03329" ry="2.32726" fill="#EFEFEF"/>
<ellipse cx="213.495" cy="62.8361" rx="2.03329" ry="2.32726" fill="#EFEFEF"/>
<ellipse cx="231.117" cy="62.8361" rx="2.03329" ry="2.32726" fill="#EFEFEF"/>
<ellipse cx="2.03329" cy="83.0057" rx="2.03329" ry="2.32726" fill="#EFEFEF"/>
<ellipse cx="19.6554" cy="83.0057" rx="2.03329" ry="2.32726" fill="#EFEFEF"/>
<ellipse cx="37.2779" cy="83.0057" rx="2.03329" ry="2.32726" fill="#EFEFEF"/>
<ellipse cx="54.8976" cy="83.0057" rx="2.03329" ry="2.32726" fill="#EFEFEF"/>
<ellipse cx="72.5196" cy="83.0057" rx="2.03329" ry="2.32726" fill="#EFEFEF"/>
<ellipse cx="90.1417" cy="83.0057" rx="2.03329" ry="2.32726" fill="#EFEFEF"/>
<ellipse cx="107.764" cy="83.0057" rx="2.03329" ry="2.32726" fill="#EFEFEF"/>
<ellipse cx="125.386" cy="83.0057" rx="2.03329" ry="2.32726" fill="#EFEFEF"/>
<ellipse cx="143.008" cy="83.0057" rx="2.03329" ry="2.32726" fill="#EFEFEF"/>
<ellipse cx="160.63" cy="83.0057" rx="2.03329" ry="2.32726" fill="#EFEFEF"/>
<ellipse cx="178.253" cy="83.0057" rx="2.03329" ry="2.32726" fill="#EFEFEF"/>
<ellipse cx="195.873" cy="83.0057" rx="2.03329" ry="2.32726" fill="#EFEFEF"/>
<ellipse cx="213.495" cy="83.0057" rx="2.03329" ry="2.32726" fill="#EFEFEF"/>
<ellipse cx="231.117" cy="83.0057" rx="2.03329" ry="2.32726" fill="#EFEFEF"/>
<ellipse cx="2.03329" cy="103.175" rx="2.03329" ry="2.32726" fill="#EFEFEF"/>
<ellipse cx="19.6554" cy="103.175" rx="2.03329" ry="2.32726" fill="#EFEFEF"/>
<ellipse cx="37.2779" cy="103.175" rx="2.03329" ry="2.32726" fill="#EFEFEF"/>
<ellipse cx="54.8976" cy="103.175" rx="2.03329" ry="2.32726" fill="#EFEFEF"/>
<ellipse cx="72.5196" cy="103.175" rx="2.03329" ry="2.32726" fill="#EFEFEF"/>
<ellipse cx="90.1417" cy="103.175" rx="2.03329" ry="2.32726" fill="#EFEFEF"/>
<ellipse cx="107.764" cy="103.175" rx="2.03329" ry="2.32726" fill="#EFEFEF"/>
<ellipse cx="125.386" cy="103.175" rx="2.03329" ry="2.32726" fill="#EFEFEF"/>
<ellipse cx="143.008" cy="103.175" rx="2.03329" ry="2.32726" fill="#EFEFEF"/>
<ellipse cx="160.63" cy="103.175" rx="2.03329" ry="2.32726" fill="#EFEFEF"/>
<ellipse cx="178.253" cy="103.175" rx="2.03329" ry="2.32726" fill="#EFEFEF"/>
<ellipse cx="195.873" cy="103.175" rx="2.03329" ry="2.32726" fill="#EFEFEF"/>
<ellipse cx="213.495" cy="103.175" rx="2.03329" ry="2.32726" fill="#EFEFEF"/>
<ellipse cx="231.117" cy="103.175" rx="2.03329" ry="2.32726" fill="#EFEFEF"/>
<ellipse cx="2.03329" cy="123.345" rx="2.03329" ry="2.32726" fill="#EFEFEF"/>
<ellipse cx="19.6554" cy="123.345" rx="2.03329" ry="2.32726" fill="#EFEFEF"/>
<ellipse cx="37.2779" cy="123.345" rx="2.03329" ry="2.32726" fill="#EFEFEF"/>
<ellipse cx="54.8976" cy="123.345" rx="2.03329" ry="2.32726" fill="#EFEFEF"/>
<ellipse cx="72.5196" cy="123.345" rx="2.03329" ry="2.32726" fill="#EFEFEF"/>
<ellipse cx="90.1417" cy="123.345" rx="2.03329" ry="2.32726" fill="#EFEFEF"/>
<ellipse cx="107.764" cy="123.345" rx="2.03329" ry="2.32726" fill="#EFEFEF"/>
<ellipse cx="125.386" cy="123.345" rx="2.03329" ry="2.32726" fill="#EFEFEF"/>
<ellipse cx="143.008" cy="123.345" rx="2.03329" ry="2.32726" fill="#EFEFEF"/>
<ellipse cx="160.63" cy="123.345" rx="2.03329" ry="2.32726" fill="#EFEFEF"/>
<ellipse cx="178.253" cy="123.345" rx="2.03329" ry="2.32726" fill="#EFEFEF"/>
<ellipse cx="195.873" cy="123.345" rx="2.03329" ry="2.32726" fill="#EFEFEF"/>
<ellipse cx="213.495" cy="123.345" rx="2.03329" ry="2.32726" fill="#EFEFEF"/>
<ellipse cx="231.117" cy="123.345" rx="2.03329" ry="2.32726" fill="#EFEFEF"/>
<ellipse cx="2.03329" cy="143.515" rx="2.03329" ry="2.32726" fill="#EFEFEF"/>
<ellipse cx="19.6554" cy="143.515" rx="2.03329" ry="2.32726" fill="#EFEFEF"/>
<ellipse cx="37.2779" cy="143.515" rx="2.03329" ry="2.32726" fill="#EFEFEF"/>
<ellipse cx="54.8976" cy="143.515" rx="2.03329" ry="2.32726" fill="#EFEFEF"/>
<ellipse cx="72.5196" cy="143.515" rx="2.03329" ry="2.32726" fill="#EFEFEF"/>
<ellipse cx="90.1417" cy="143.515" rx="2.03329" ry="2.32726" fill="#EFEFEF"/>
<ellipse cx="107.764" cy="143.515" rx="2.03329" ry="2.32726" fill="#EFEFEF"/>
<ellipse cx="125.386" cy="143.515" rx="2.03329" ry="2.32726" fill="#EFEFEF"/>
<ellipse cx="143.008" cy="143.515" rx="2.03329" ry="2.32726" fill="#EFEFEF"/>
<ellipse cx="160.63" cy="143.515" rx="2.03329" ry="2.32726" fill="#EFEFEF"/>
<ellipse cx="178.253" cy="143.515" rx="2.03329" ry="2.32726" fill="#EFEFEF"/>
<ellipse cx="195.873" cy="143.515" rx="2.03329" ry="2.32726" fill="#EFEFEF"/>
<ellipse cx="213.495" cy="143.515" rx="2.03329" ry="2.32726" fill="#EFEFEF"/>
<ellipse cx="231.117" cy="143.515" rx="2.03329" ry="2.32726" fill="#EFEFEF"/>
<ellipse cx="2.03329" cy="163.684" rx="2.03329" ry="2.32726" fill="#EFEFEF"/>
<ellipse cx="19.6554" cy="163.684" rx="2.03329" ry="2.32726" fill="#EFEFEF"/>
<ellipse cx="37.2779" cy="163.684" rx="2.03329" ry="2.32726" fill="#EFEFEF"/>
<ellipse cx="54.8976" cy="163.684" rx="2.03329" ry="2.32726" fill="#EFEFEF"/>
<ellipse cx="72.5196" cy="163.684" rx="2.03329" ry="2.32726" fill="#EFEFEF"/>
<ellipse cx="90.1417" cy="163.684" rx="2.03329" ry="2.32726" fill="#EFEFEF"/>
<ellipse cx="107.764" cy="163.684" rx="2.03329" ry="2.32726" fill="#EFEFEF"/>
<ellipse cx="125.386" cy="163.684" rx="2.03329" ry="2.32726" fill="#EFEFEF"/>
<ellipse cx="143.008" cy="163.684" rx="2.03329" ry="2.32726" fill="#EFEFEF"/>
<ellipse cx="160.63" cy="163.684" rx="2.03329" ry="2.32726" fill="#EFEFEF"/>
<ellipse cx="178.253" cy="163.684" rx="2.03329" ry="2.32726" fill="#EFEFEF"/>
<ellipse cx="195.873" cy="163.684" rx="2.03329" ry="2.32726" fill="#EFEFEF"/>
<ellipse cx="213.495" cy="163.684" rx="2.03329" ry="2.32726" fill="#EFEFEF"/>
<ellipse cx="231.117" cy="163.684" rx="2.03329" ry="2.32726" fill="#EFEFEF"/>
<ellipse cx="2.03329" cy="183.854" rx="2.03329" ry="2.32726" fill="#EFEFEF"/>
<ellipse cx="19.6554" cy="183.854" rx="2.03329" ry="2.32726" fill="#EFEFEF"/>
<ellipse cx="37.2779" cy="183.854" rx="2.03329" ry="2.32726" fill="#EFEFEF"/>
<ellipse cx="54.8976" cy="183.854" rx="2.03329" ry="2.32726" fill="#EFEFEF"/>
<ellipse cx="72.5196" cy="183.854" rx="2.03329" ry="2.32726" fill="#EFEFEF"/>
<ellipse cx="90.1417" cy="183.854" rx="2.03329" ry="2.32726" fill="#EFEFEF"/>
<ellipse cx="107.764" cy="183.854" rx="2.03329" ry="2.32726" fill="#EFEFEF"/>
<ellipse cx="125.386" cy="183.854" rx="2.03329" ry="2.32726" fill="#EFEFEF"/>
<ellipse cx="143.008" cy="183.854" rx="2.03329" ry="2.32726" fill="#EFEFEF"/>
<ellipse cx="160.63" cy="183.854" rx="2.03329" ry="2.32726" fill="#EFEFEF"/>
<ellipse cx="178.253" cy="183.854" rx="2.03329" ry="2.32726" fill="#EFEFEF"/>
<ellipse cx="195.873" cy="183.854" rx="2.03329" ry="2.32726" fill="#EFEFEF"/>
<ellipse cx="213.495" cy="183.854" rx="2.03329" ry="2.32726" fill="#EFEFEF"/>
<ellipse cx="231.117" cy="183.854" rx="2.03329" ry="2.32726" fill="#EFEFEF"/>
<ellipse cx="2.03329" cy="204.024" rx="2.03329" ry="2.32726" fill="#EFEFEF"/>
<ellipse cx="2.03329" cy="360.327" rx="2.03329" ry="2.32726" fill="#EFEFEF"/>
<ellipse cx="19.6554" cy="204.024" rx="2.03329" ry="2.32726" fill="#EFEFEF"/>
<ellipse cx="19.6554" cy="360.327" rx="2.03329" ry="2.32726" fill="#EFEFEF"/>
<ellipse cx="37.2779" cy="204.024" rx="2.03329" ry="2.32726" fill="#EFEFEF"/>
<ellipse cx="37.2779" cy="360.327" rx="2.03329" ry="2.32726" fill="#EFEFEF"/>
<ellipse cx="54.8976" cy="204.024" rx="2.03329" ry="2.32726" fill="#EFEFEF"/>
<ellipse cx="54.8976" cy="360.327" rx="2.03329" ry="2.32726" fill="#EFEFEF"/>
<ellipse cx="72.5196" cy="204.024" rx="2.03329" ry="2.32726" fill="#EFEFEF"/>
<ellipse cx="72.5196" cy="360.327" rx="2.03329" ry="2.32726" fill="#EFEFEF"/>
<ellipse cx="90.1417" cy="204.024" rx="2.03329" ry="2.32726" fill="#EFEFEF"/>
<ellipse cx="90.1417" cy="360.327" rx="2.03329" ry="2.32726" fill="#EFEFEF"/>
<ellipse cx="107.764" cy="204.024" rx="2.03329" ry="2.32726" fill="#EFEFEF"/>
<ellipse cx="107.764" cy="360.327" rx="2.03329" ry="2.32726" fill="#EFEFEF"/>
<ellipse cx="125.386" cy="204.024" rx="2.03329" ry="2.32726" fill="#EFEFEF"/>
<ellipse cx="125.386" cy="360.327" rx="2.03329" ry="2.32726" fill="#EFEFEF"/>
<ellipse cx="143.008" cy="204.024" rx="2.03329" ry="2.32726" fill="#EFEFEF"/>
<ellipse cx="143.008" cy="360.327" rx="2.03329" ry="2.32726" fill="#EFEFEF"/>
<ellipse cx="160.63" cy="204.024" rx="2.03329" ry="2.32726" fill="#EFEFEF"/>
<ellipse cx="160.63" cy="360.327" rx="2.03329" ry="2.32726" fill="#EFEFEF"/>
<ellipse cx="178.253" cy="204.024" rx="2.03329" ry="2.32726" fill="#EFEFEF"/>
<ellipse cx="178.253" cy="360.327" rx="2.03329" ry="2.32726" fill="#EFEFEF"/>
<ellipse cx="195.873" cy="204.024" rx="2.03329" ry="2.32726" fill="#EFEFEF"/>
<ellipse cx="195.873" cy="360.327" rx="2.03329" ry="2.32726" fill="#EFEFEF"/>
<ellipse cx="213.495" cy="204.024" rx="2.03329" ry="2.32726" fill="#EFEFEF"/>
<ellipse cx="213.495" cy="360.327" rx="2.03329" ry="2.32726" fill="#EFEFEF"/>
<ellipse cx="231.117" cy="204.024" rx="2.03329" ry="2.32726" fill="#EFEFEF"/>
<ellipse cx="231.117" cy="360.327" rx="2.03329" ry="2.32726" fill="#EFEFEF"/>
<ellipse cx="2.03329" cy="224.193" rx="2.03329" ry="2.32726" fill="#EFEFEF"/>
<ellipse cx="2.03329" cy="380.497" rx="2.03329" ry="2.32726" fill="#EFEFEF"/>
<ellipse cx="19.6554" cy="224.193" rx="2.03329" ry="2.32726" fill="#EFEFEF"/>
<ellipse cx="19.6554" cy="380.497" rx="2.03329" ry="2.32726" fill="#EFEFEF"/>
<ellipse cx="37.2779" cy="224.193" rx="2.03329" ry="2.32726" fill="#EFEFEF"/>
<ellipse cx="37.2779" cy="380.497" rx="2.03329" ry="2.32726" fill="#EFEFEF"/>
<ellipse cx="54.8976" cy="224.193" rx="2.03329" ry="2.32726" fill="#EFEFEF"/>
<ellipse cx="54.8976" cy="380.497" rx="2.03329" ry="2.32726" fill="#EFEFEF"/>
<ellipse cx="72.5196" cy="224.193" rx="2.03329" ry="2.32726" fill="#EFEFEF"/>
<ellipse cx="72.5196" cy="380.497" rx="2.03329" ry="2.32726" fill="#EFEFEF"/>
<ellipse cx="90.1417" cy="224.193" rx="2.03329" ry="2.32726" fill="#EFEFEF"/>
<ellipse cx="90.1417" cy="380.497" rx="2.03329" ry="2.32726" fill="#EFEFEF"/>
<ellipse cx="107.764" cy="224.193" rx="2.03329" ry="2.32726" fill="#EFEFEF"/>
<ellipse cx="107.764" cy="380.497" rx="2.03329" ry="2.32726" fill="#EFEFEF"/>
<ellipse cx="125.386" cy="224.193" rx="2.03329" ry="2.32726" fill="#EFEFEF"/>
<ellipse cx="125.386" cy="380.497" rx="2.03329" ry="2.32726" fill="#EFEFEF"/>
<ellipse cx="143.008" cy="224.193" rx="2.03329" ry="2.32726" fill="#EFEFEF"/>
<ellipse cx="143.008" cy="380.497" rx="2.03329" ry="2.32726" fill="#EFEFEF"/>
<ellipse cx="160.63" cy="224.193" rx="2.03329" ry="2.32726" fill="#EFEFEF"/>
<ellipse cx="160.63" cy="380.497" rx="2.03329" ry="2.32726" fill="#EFEFEF"/>
<ellipse cx="178.253" cy="224.193" rx="2.03329" ry="2.32726" fill="#EFEFEF"/>
<ellipse cx="178.253" cy="380.497" rx="2.03329" ry="2.32726" fill="#EFEFEF"/>
<ellipse cx="195.873" cy="224.193" rx="2.03329" ry="2.32726" fill="#EFEFEF"/>
<ellipse cx="195.873" cy="380.497" rx="2.03329" ry="2.32726" fill="#EFEFEF"/>
<ellipse cx="213.495" cy="224.193" rx="2.03329" ry="2.32726" fill="#EFEFEF"/>
<ellipse cx="213.495" cy="380.497" rx="2.03329" ry="2.32726" fill="#EFEFEF"/>
<ellipse cx="231.117" cy="224.193" rx="2.03329" ry="2.32726" fill="#EFEFEF"/>
<ellipse cx="231.117" cy="380.497" rx="2.03329" ry="2.32726" fill="#EFEFEF"/>
<ellipse cx="2.03329" cy="241.764" rx="2.03329" ry="2.32726" fill="#EFEFEF"/>
<ellipse cx="2.03329" cy="398.068" rx="2.03329" ry="2.32726" fill="#EFEFEF"/>
<ellipse cx="19.6554" cy="241.764" rx="2.03329" ry="2.32726" fill="#EFEFEF"/>
<ellipse cx="19.6554" cy="398.068" rx="2.03329" ry="2.32726" fill="#EFEFEF"/>
<ellipse cx="37.2779" cy="241.764" rx="2.03329" ry="2.32726" fill="#EFEFEF"/>
<ellipse cx="37.2779" cy="398.068" rx="2.03329" ry="2.32726" fill="#EFEFEF"/>
<ellipse cx="54.8976" cy="241.764" rx="2.03329" ry="2.32726" fill="#EFEFEF"/>
<ellipse cx="54.8976" cy="398.068" rx="2.03329" ry="2.32726" fill="#EFEFEF"/>
<ellipse cx="72.5196" cy="241.764" rx="2.03329" ry="2.32726" fill="#EFEFEF"/>
<ellipse cx="72.5196" cy="398.068" rx="2.03329" ry="2.32726" fill="#EFEFEF"/>
<ellipse cx="90.1417" cy="241.764" rx="2.03329" ry="2.32726" fill="#EFEFEF"/>
<ellipse cx="90.1417" cy="398.068" rx="2.03329" ry="2.32726" fill="#EFEFEF"/>
<ellipse cx="107.764" cy="241.764" rx="2.03329" ry="2.32726" fill="#EFEFEF"/>
<ellipse cx="107.764" cy="398.068" rx="2.03329" ry="2.32726" fill="#EFEFEF"/>
<ellipse cx="125.386" cy="241.764" rx="2.03329" ry="2.32726" fill="#EFEFEF"/>
<ellipse cx="125.386" cy="398.068" rx="2.03329" ry="2.32726" fill="#EFEFEF"/>
<ellipse cx="143.008" cy="241.764" rx="2.03329" ry="2.32726" fill="#EFEFEF"/>
<ellipse cx="143.008" cy="398.068" rx="2.03329" ry="2.32726" fill="#EFEFEF"/>
<ellipse cx="160.63" cy="241.764" rx="2.03329" ry="2.32726" fill="#EFEFEF"/>
<ellipse cx="160.63" cy="398.068" rx="2.03329" ry="2.32726" fill="#EFEFEF"/>
<ellipse cx="178.253" cy="241.764" rx="2.03329" ry="2.32726" fill="#EFEFEF"/>
<ellipse cx="178.253" cy="398.068" rx="2.03329" ry="2.32726" fill="#EFEFEF"/>
<ellipse cx="195.873" cy="241.764" rx="2.03329" ry="2.32726" fill="#EFEFEF"/>
<ellipse cx="195.873" cy="398.068" rx="2.03329" ry="2.32726" fill="#EFEFEF"/>
<ellipse cx="213.495" cy="241.764" rx="2.03329" ry="2.32726" fill="#EFEFEF"/>
<ellipse cx="213.495" cy="398.068" rx="2.03329" ry="2.32726" fill="#EFEFEF"/>
<ellipse cx="231.117" cy="241.764" rx="2.03329" ry="2.32726" fill="#EFEFEF"/>
<ellipse cx="231.117" cy="398.068" rx="2.03329" ry="2.32726" fill="#EFEFEF"/>
<ellipse cx="2.03329" cy="261.934" rx="2.03329" ry="2.32726" fill="#EFEFEF"/>
<ellipse cx="2.03329" cy="418.237" rx="2.03329" ry="2.32726" fill="#EFEFEF"/>
<ellipse cx="19.6554" cy="261.934" rx="2.03329" ry="2.32726" fill="#EFEFEF"/>
<ellipse cx="19.6554" cy="418.237" rx="2.03329" ry="2.32726" fill="#EFEFEF"/>
<ellipse cx="37.2779" cy="261.934" rx="2.03329" ry="2.32726" fill="#EFEFEF"/>
<ellipse cx="37.2779" cy="418.237" rx="2.03329" ry="2.32726" fill="#EFEFEF"/>
<ellipse cx="54.8976" cy="261.934" rx="2.03329" ry="2.32726" fill="#EFEFEF"/>
<ellipse cx="54.8976" cy="418.237" rx="2.03329" ry="2.32726" fill="#EFEFEF"/>
<ellipse cx="72.5196" cy="261.934" rx="2.03329" ry="2.32726" fill="#EFEFEF"/>
<ellipse cx="72.5196" cy="418.237" rx="2.03329" ry="2.32726" fill="#EFEFEF"/>
<ellipse cx="90.1417" cy="261.934" rx="2.03329" ry="2.32726" fill="#EFEFEF"/>
<ellipse cx="90.1417" cy="418.237" rx="2.03329" ry="2.32726" fill="#EFEFEF"/>
<ellipse cx="107.764" cy="261.934" rx="2.03329" ry="2.32726" fill="#EFEFEF"/>
<ellipse cx="107.764" cy="418.237" rx="2.03329" ry="2.32726" fill="#EFEFEF"/>
<ellipse cx="125.386" cy="261.934" rx="2.03329" ry="2.32726" fill="#EFEFEF"/>
<ellipse cx="125.386" cy="418.237" rx="2.03329" ry="2.32726" fill="#EFEFEF"/>
<ellipse cx="143.008" cy="261.934" rx="2.03329" ry="2.32726" fill="#EFEFEF"/>
<ellipse cx="143.008" cy="418.237" rx="2.03329" ry="2.32726" fill="#EFEFEF"/>
<ellipse cx="160.63" cy="261.934" rx="2.03329" ry="2.32726" fill="#EFEFEF"/>
<ellipse cx="160.63" cy="418.237" rx="2.03329" ry="2.32726" fill="#EFEFEF"/>
<ellipse cx="178.253" cy="261.934" rx="2.03329" ry="2.32726" fill="#EFEFEF"/>
<ellipse cx="178.253" cy="418.237" rx="2.03329" ry="2.32726" fill="#EFEFEF"/>
<ellipse cx="195.873" cy="261.934" rx="2.03329" ry="2.32726" fill="#EFEFEF"/>
<ellipse cx="195.873" cy="418.237" rx="2.03329" ry="2.32726" fill="#EFEFEF"/>
<ellipse cx="213.495" cy="261.934" rx="2.03329" ry="2.32726" fill="#EFEFEF"/>
<ellipse cx="213.495" cy="418.237" rx="2.03329" ry="2.32726" fill="#EFEFEF"/>
<ellipse cx="231.117" cy="261.934" rx="2.03329" ry="2.32726" fill="#EFEFEF"/>
<ellipse cx="231.117" cy="418.237" rx="2.03329" ry="2.32726" fill="#EFEFEF"/>
<ellipse cx="2.03329" cy="282.103" rx="2.03329" ry="2.32726" fill="#EFEFEF"/>
<ellipse cx="2.03329" cy="438.407" rx="2.03329" ry="2.32726" fill="#EFEFEF"/>
<ellipse cx="19.6554" cy="282.103" rx="2.03329" ry="2.32726" fill="#EFEFEF"/>
<ellipse cx="19.6554" cy="438.407" rx="2.03329" ry="2.32726" fill="#EFEFEF"/>
<ellipse cx="37.2779" cy="282.103" rx="2.03329" ry="2.32726" fill="#EFEFEF"/>
<ellipse cx="37.2779" cy="438.407" rx="2.03329" ry="2.32726" fill="#EFEFEF"/>
<ellipse cx="54.8976" cy="282.103" rx="2.03329" ry="2.32726" fill="#EFEFEF"/>
<ellipse cx="54.8976" cy="438.407" rx="2.03329" ry="2.32726" fill="#EFEFEF"/>
<ellipse cx="72.5196" cy="282.103" rx="2.03329" ry="2.32726" fill="#EFEFEF"/>
<ellipse cx="72.5196" cy="438.407" rx="2.03329" ry="2.32726" fill="#EFEFEF"/>
<ellipse cx="90.1417" cy="282.103" rx="2.03329" ry="2.32726" fill="#EFEFEF"/>
<ellipse cx="90.1417" cy="438.407" rx="2.03329" ry="2.32726" fill="#EFEFEF"/>
<ellipse cx="107.764" cy="282.103" rx="2.03329" ry="2.32726" fill="#EFEFEF"/>
<ellipse cx="107.764" cy="438.407" rx="2.03329" ry="2.32726" fill="#EFEFEF"/>
<ellipse cx="125.386" cy="282.103" rx="2.03329" ry="2.32726" fill="#EFEFEF"/>
<ellipse cx="125.386" cy="438.407" rx="2.03329" ry="2.32726" fill="#EFEFEF"/>
<ellipse cx="143.008" cy="282.103" rx="2.03329" ry="2.32726" fill="#EFEFEF"/>
<ellipse cx="143.008" cy="438.407" rx="2.03329" ry="2.32726" fill="#EFEFEF"/>
<ellipse cx="160.63" cy="282.103" rx="2.03329" ry="2.32726" fill="#EFEFEF"/>
<ellipse cx="160.63" cy="438.407" rx="2.03329" ry="2.32726" fill="#EFEFEF"/>
<ellipse cx="178.253" cy="282.103" rx="2.03329" ry="2.32726" fill="#EFEFEF"/>
<ellipse cx="178.253" cy="438.407" rx="2.03329" ry="2.32726" fill="#EFEFEF"/>
<ellipse cx="195.873" cy="282.103" rx="2.03329" ry="2.32726" fill="#EFEFEF"/>
<ellipse cx="195.873" cy="438.407" rx="2.03329" ry="2.32726" fill="#EFEFEF"/>
<ellipse cx="213.495" cy="282.103" rx="2.03329" ry="2.32726" fill="#EFEFEF"/>
<ellipse cx="213.495" cy="438.407" rx="2.03329" ry="2.32726" fill="#EFEFEF"/>
<ellipse cx="231.117" cy="282.103" rx="2.03329" ry="2.32726" fill="#EFEFEF"/>
<ellipse cx="231.117" cy="438.407" rx="2.03329" ry="2.32726" fill="#EFEFEF"/>
<ellipse cx="2.03329" cy="302.273" rx="2.03329" ry="2.32726" fill="#EFEFEF"/>
<ellipse cx="2.03329" cy="458.576" rx="2.03329" ry="2.32726" fill="#EFEFEF"/>
<ellipse cx="19.6554" cy="302.273" rx="2.03329" ry="2.32726" fill="#EFEFEF"/>
<ellipse cx="19.6554" cy="458.576" rx="2.03329" ry="2.32726" fill="#EFEFEF"/>
<ellipse cx="37.2779" cy="302.273" rx="2.03329" ry="2.32726" fill="#EFEFEF"/>
<ellipse cx="37.2779" cy="458.576" rx="2.03329" ry="2.32726" fill="#EFEFEF"/>
<ellipse cx="54.8976" cy="302.273" rx="2.03329" ry="2.32726" fill="#EFEFEF"/>
<ellipse cx="54.8976" cy="458.576" rx="2.03329" ry="2.32726" fill="#EFEFEF"/>
<ellipse cx="72.5196" cy="302.273" rx="2.03329" ry="2.32726" fill="#EFEFEF"/>
<ellipse cx="72.5196" cy="458.576" rx="2.03329" ry="2.32726" fill="#EFEFEF"/>
<ellipse cx="90.1417" cy="302.273" rx="2.03329" ry="2.32726" fill="#EFEFEF"/>
<ellipse cx="90.1417" cy="458.576" rx="2.03329" ry="2.32726" fill="#EFEFEF"/>
<ellipse cx="107.764" cy="302.273" rx="2.03329" ry="2.32726" fill="#EFEFEF"/>
<ellipse cx="107.764" cy="458.576" rx="2.03329" ry="2.32726" fill="#EFEFEF"/>
<ellipse cx="125.386" cy="302.273" rx="2.03329" ry="2.32726" fill="#EFEFEF"/>
<ellipse cx="125.386" cy="458.576" rx="2.03329" ry="2.32726" fill="#EFEFEF"/>
<ellipse cx="143.008" cy="302.273" rx="2.03329" ry="2.32726" fill="#EFEFEF"/>
<ellipse cx="143.008" cy="458.576" rx="2.03329" ry="2.32726" fill="#EFEFEF"/>
<ellipse cx="160.63" cy="302.273" rx="2.03329" ry="2.32726" fill="#EFEFEF"/>
<ellipse cx="160.63" cy="458.576" rx="2.03329" ry="2.32726" fill="#EFEFEF"/>
<ellipse cx="178.253" cy="302.273" rx="2.03329" ry="2.32726" fill="#EFEFEF"/>
<ellipse cx="178.253" cy="458.576" rx="2.03329" ry="2.32726" fill="#EFEFEF"/>
<ellipse cx="195.873" cy="302.273" rx="2.03329" ry="2.32726" fill="#EFEFEF"/>
<ellipse cx="195.873" cy="458.576" rx="2.03329" ry="2.32726" fill="#EFEFEF"/>
<ellipse cx="213.495" cy="302.273" rx="2.03329" ry="2.32726" fill="#EFEFEF"/>
<ellipse cx="213.495" cy="458.576" rx="2.03329" ry="2.32726" fill="#EFEFEF"/>
<ellipse cx="231.117" cy="302.273" rx="2.03329" ry="2.32726" fill="#EFEFEF"/>
<ellipse cx="231.117" cy="458.576" rx="2.03329" ry="2.32726" fill="#EFEFEF"/>
<ellipse cx="2.03329" cy="320.503" rx="2.03329" ry="2.32726" fill="#EFEFEF"/>
<ellipse cx="2.03329" cy="476.807" rx="2.03329" ry="2.32726" fill="#EFEFEF"/>
<ellipse cx="19.6554" cy="320.503" rx="2.03329" ry="2.32726" fill="#EFEFEF"/>
<ellipse cx="19.6554" cy="476.807" rx="2.03329" ry="2.32726" fill="#EFEFEF"/>
<ellipse cx="37.2779" cy="320.503" rx="2.03329" ry="2.32726" fill="#EFEFEF"/>
<ellipse cx="37.2779" cy="476.807" rx="2.03329" ry="2.32726" fill="#EFEFEF"/>
<ellipse cx="54.8976" cy="320.503" rx="2.03329" ry="2.32726" fill="#EFEFEF"/>
<ellipse cx="54.8976" cy="476.807" rx="2.03329" ry="2.32726" fill="#EFEFEF"/>
<ellipse cx="72.5196" cy="320.503" rx="2.03329" ry="2.32726" fill="#EFEFEF"/>
<ellipse cx="72.5196" cy="476.807" rx="2.03329" ry="2.32726" fill="#EFEFEF"/>
<ellipse cx="90.1417" cy="320.503" rx="2.03329" ry="2.32726" fill="#EFEFEF"/>
<ellipse cx="90.1417" cy="476.807" rx="2.03329" ry="2.32726" fill="#EFEFEF"/>
<ellipse cx="107.764" cy="320.503" rx="2.03329" ry="2.32726" fill="#EFEFEF"/>
<ellipse cx="107.764" cy="476.807" rx="2.03329" ry="2.32726" fill="#EFEFEF"/>
<ellipse cx="125.386" cy="320.503" rx="2.03329" ry="2.32726" fill="#EFEFEF"/>
<ellipse cx="125.386" cy="476.807" rx="2.03329" ry="2.32726" fill="#EFEFEF"/>
<ellipse cx="143.008" cy="320.503" rx="2.03329" ry="2.32726" fill="#EFEFEF"/>
<ellipse cx="143.008" cy="476.807" rx="2.03329" ry="2.32726" fill="#EFEFEF"/>
<ellipse cx="160.63" cy="320.503" rx="2.03329" ry="2.32726" fill="#EFEFEF"/>
<ellipse cx="160.63" cy="476.807" rx="2.03329" ry="2.32726" fill="#EFEFEF"/>
<ellipse cx="178.253" cy="320.503" rx="2.03329" ry="2.32726" fill="#EFEFEF"/>
<ellipse cx="178.253" cy="476.807" rx="2.03329" ry="2.32726" fill="#EFEFEF"/>
<ellipse cx="195.873" cy="320.503" rx="2.03329" ry="2.32726" fill="#EFEFEF"/>
<ellipse cx="195.873" cy="476.807" rx="2.03329" ry="2.32726" fill="#EFEFEF"/>
<ellipse cx="213.495" cy="320.503" rx="2.03329" ry="2.32726" fill="#EFEFEF"/>
<ellipse cx="213.495" cy="476.807" rx="2.03329" ry="2.32726" fill="#EFEFEF"/>
<ellipse cx="231.117" cy="320.503" rx="2.03329" ry="2.32726" fill="#EFEFEF"/>
<ellipse cx="231.117" cy="476.807" rx="2.03329" ry="2.32726" fill="#EFEFEF"/>
<ellipse cx="2.03329" cy="340.673" rx="2.03329" ry="2.32726" fill="#EFEFEF"/>
<ellipse cx="2.03329" cy="496.977" rx="2.03329" ry="2.32726" fill="#EFEFEF"/>
<ellipse cx="19.6554" cy="340.673" rx="2.03329" ry="2.32726" fill="#EFEFEF"/>
<ellipse cx="19.6554" cy="496.977" rx="2.03329" ry="2.32726" fill="#EFEFEF"/>
<ellipse cx="37.2779" cy="340.673" rx="2.03329" ry="2.32726" fill="#EFEFEF"/>
<ellipse cx="37.2779" cy="496.977" rx="2.03329" ry="2.32726" fill="#EFEFEF"/>
<ellipse cx="54.8976" cy="340.673" rx="2.03329" ry="2.32726" fill="#EFEFEF"/>
<ellipse cx="54.8976" cy="496.977" rx="2.03329" ry="2.32726" fill="#EFEFEF"/>
<ellipse cx="72.5196" cy="340.673" rx="2.03329" ry="2.32726" fill="#EFEFEF"/>
<ellipse cx="72.5196" cy="496.977" rx="2.03329" ry="2.32726" fill="#EFEFEF"/>
<ellipse cx="90.1417" cy="340.673" rx="2.03329" ry="2.32726" fill="#EFEFEF"/>
<ellipse cx="90.1417" cy="496.977" rx="2.03329" ry="2.32726" fill="#EFEFEF"/>
<ellipse cx="107.764" cy="340.673" rx="2.03329" ry="2.32726" fill="#EFEFEF"/>
<ellipse cx="107.764" cy="496.977" rx="2.03329" ry="2.32726" fill="#EFEFEF"/>
<ellipse cx="125.386" cy="340.673" rx="2.03329" ry="2.32726" fill="#EFEFEF"/>
<ellipse cx="125.386" cy="496.977" rx="2.03329" ry="2.32726" fill="#EFEFEF"/>
<ellipse cx="143.008" cy="340.673" rx="2.03329" ry="2.32726" fill="#EFEFEF"/>
<ellipse cx="143.008" cy="496.977" rx="2.03329" ry="2.32726" fill="#EFEFEF"/>
<ellipse cx="160.63" cy="340.673" rx="2.03329" ry="2.32726" fill="#EFEFEF"/>
<ellipse cx="160.63" cy="496.977" rx="2.03329" ry="2.32726" fill="#EFEFEF"/>
<ellipse cx="178.253" cy="340.673" rx="2.03329" ry="2.32726" fill="#EFEFEF"/>
<ellipse cx="178.253" cy="496.977" rx="2.03329" ry="2.32726" fill="#EFEFEF"/>
<ellipse cx="195.873" cy="340.673" rx="2.03329" ry="2.32726" fill="#EFEFEF"/>
<ellipse cx="195.873" cy="496.977" rx="2.03329" ry="2.32726" fill="#EFEFEF"/>
<ellipse cx="213.495" cy="340.673" rx="2.03329" ry="2.32726" fill="#EFEFEF"/>
<ellipse cx="213.495" cy="496.977" rx="2.03329" ry="2.32726" fill="#EFEFEF"/>
<ellipse cx="231.117" cy="340.673" rx="2.03329" ry="2.32726" fill="#EFEFEF"/>
<ellipse cx="231.117" cy="496.977" rx="2.03329" ry="2.32726" fill="#EFEFEF"/>
<ellipse cx="246.367" cy="2.32726" rx="2.03329" ry="2.32726" fill="#EFEFEF"/>
<ellipse cx="263.989" cy="2.32726" rx="2.03329" ry="2.32726" fill="#EFEFEF"/>
<ellipse cx="281.611" cy="2.32726" rx="2.03329" ry="2.32726" fill="#EFEFEF"/>
<ellipse cx="299.233" cy="2.32726" rx="2.03329" ry="2.32726" fill="#EFEFEF"/>
<ellipse cx="316.856" cy="2.32726" rx="2.03329" ry="2.32726" fill="#EFEFEF"/>
<ellipse cx="334.475" cy="2.32726" rx="2.03329" ry="2.32726" fill="#EFEFEF"/>
<ellipse cx="352.097" cy="2.32726" rx="2.03329" ry="2.32726" fill="#EFEFEF"/>
<ellipse cx="369.72" cy="2.32726" rx="2.03329" ry="2.32726" fill="#EFEFEF"/>
<ellipse cx="387.342" cy="2.32726" rx="2.03329" ry="2.32726" fill="#EFEFEF"/>
<ellipse cx="404.964" cy="2.32726" rx="2.03329" ry="2.32726" fill="#EFEFEF"/>
<ellipse cx="422.586" cy="2.32726" rx="2.03329" ry="2.32726" fill="#EFEFEF"/>
<ellipse cx="440.208" cy="2.32726" rx="2.03329" ry="2.32726" fill="#EFEFEF"/>
<ellipse cx="457.83" cy="2.32726" rx="2.03329" ry="2.32726" fill="#EFEFEF"/>
<ellipse cx="475.45" cy="2.32726" rx="2.03329" ry="2.32726" fill="#EFEFEF"/>
<ellipse cx="493.072" cy="2.32726" rx="2.03329" ry="2.32726" fill="#EFEFEF"/>
<ellipse cx="510.694" cy="2.32726" rx="2.03329" ry="2.32726" fill="#EFEFEF"/>
<ellipse cx="246.367" cy="22.4969" rx="2.03329" ry="2.32726" fill="#EFEFEF"/>
<ellipse cx="263.989" cy="22.4969" rx="2.03329" ry="2.32726" fill="#EFEFEF"/>
<ellipse cx="281.611" cy="22.4969" rx="2.03329" ry="2.32726" fill="#EFEFEF"/>
<ellipse cx="299.233" cy="22.4969" rx="2.03329" ry="2.32726" fill="#EFEFEF"/>
<ellipse cx="316.856" cy="22.4969" rx="2.03329" ry="2.32726" fill="#EFEFEF"/>
<ellipse cx="334.475" cy="22.4969" rx="2.03329" ry="2.32726" fill="#EFEFEF"/>
<ellipse cx="352.097" cy="22.4969" rx="2.03329" ry="2.32726" fill="#EFEFEF"/>
<ellipse cx="369.719" cy="22.4969" rx="2.03329" ry="2.32726" fill="#EFEFEF"/>
<ellipse cx="387.342" cy="22.4969" rx="2.03329" ry="2.32726" fill="#EFEFEF"/>
<ellipse cx="404.964" cy="22.4969" rx="2.03329" ry="2.32726" fill="#EFEFEF"/>
<ellipse cx="422.586" cy="22.4969" rx="2.03329" ry="2.32726" fill="#EFEFEF"/>
<ellipse cx="440.208" cy="22.4969" rx="2.03329" ry="2.32726" fill="#EFEFEF"/>
<ellipse cx="457.83" cy="22.4969" rx="2.03329" ry="2.32726" fill="#EFEFEF"/>
<ellipse cx="475.45" cy="22.4969" rx="2.03329" ry="2.32726" fill="#EFEFEF"/>
<ellipse cx="493.072" cy="22.4969" rx="2.03329" ry="2.32726" fill="#EFEFEF"/>
<ellipse cx="510.694" cy="22.4969" rx="2.03329" ry="2.32726" fill="#EFEFEF"/>
<ellipse cx="246.367" cy="42.6666" rx="2.03329" ry="2.32726" fill="#EFEFEF"/>
<ellipse cx="263.989" cy="42.6666" rx="2.03329" ry="2.32726" fill="#EFEFEF"/>
<ellipse cx="281.611" cy="42.6666" rx="2.03329" ry="2.32726" fill="#EFEFEF"/>
<ellipse cx="299.233" cy="42.6666" rx="2.03329" ry="2.32726" fill="#EFEFEF"/>
<ellipse cx="316.856" cy="42.6666" rx="2.03329" ry="2.32726" fill="#EFEFEF"/>
<ellipse cx="334.475" cy="42.6666" rx="2.03329" ry="2.32726" fill="#EFEFEF"/>
<ellipse cx="352.097" cy="42.6666" rx="2.03329" ry="2.32726" fill="#EFEFEF"/>
<ellipse cx="369.719" cy="42.6666" rx="2.03329" ry="2.32726" fill="#EFEFEF"/>
<ellipse cx="387.342" cy="42.6666" rx="2.03329" ry="2.32726" fill="#EFEFEF"/>
<ellipse cx="404.964" cy="42.6666" rx="2.03329" ry="2.32726" fill="#EFEFEF"/>
<ellipse cx="422.586" cy="42.6666" rx="2.03329" ry="2.32726" fill="#EFEFEF"/>
<ellipse cx="440.208" cy="42.6666" rx="2.03329" ry="2.32726" fill="#EFEFEF"/>
<ellipse cx="457.83" cy="42.6666" rx="2.03329" ry="2.32726" fill="#EFEFEF"/>
<ellipse cx="475.45" cy="42.6666" rx="2.03329" ry="2.32726" fill="#EFEFEF"/>
<ellipse cx="493.072" cy="42.6666" rx="2.03329" ry="2.32726" fill="#EFEFEF"/>
<ellipse cx="510.694" cy="42.6666" rx="2.03329" ry="2.32726" fill="#EFEFEF"/>
<ellipse cx="246.367" cy="62.8361" rx="2.03329" ry="2.32726" fill="#EFEFEF"/>
<ellipse cx="263.989" cy="62.8361" rx="2.03329" ry="2.32726" fill="#EFEFEF"/>
<ellipse cx="281.611" cy="62.8361" rx="2.03329" ry="2.32726" fill="#EFEFEF"/>
<ellipse cx="299.233" cy="62.8361" rx="2.03329" ry="2.32726" fill="#EFEFEF"/>
<ellipse cx="316.856" cy="62.8361" rx="2.03329" ry="2.32726" fill="#EFEFEF"/>
<ellipse cx="334.475" cy="62.8361" rx="2.03329" ry="2.32726" fill="#EFEFEF"/>
<ellipse cx="352.097" cy="62.8361" rx="2.03329" ry="2.32726" fill="#EFEFEF"/>
<ellipse cx="369.719" cy="62.8361" rx="2.03329" ry="2.32726" fill="#EFEFEF"/>
<ellipse cx="387.342" cy="62.8361" rx="2.03329" ry="2.32726" fill="#EFEFEF"/>
<ellipse cx="404.964" cy="62.8361" rx="2.03329" ry="2.32726" fill="#EFEFEF"/>
<ellipse cx="422.586" cy="62.8361" rx="2.03329" ry="2.32726" fill="#EFEFEF"/>
<ellipse cx="440.208" cy="62.8361" rx="2.03329" ry="2.32726" fill="#EFEFEF"/>
<ellipse cx="457.83" cy="62.8361" rx="2.03329" ry="2.32726" fill="#EFEFEF"/>
<ellipse cx="475.45" cy="62.8361" rx="2.03329" ry="2.32726" fill="#EFEFEF"/>
<ellipse cx="493.072" cy="62.8361" rx="2.03329" ry="2.32726" fill="#EFEFEF"/>
<ellipse cx="510.694" cy="62.8361" rx="2.03329" ry="2.32726" fill="#EFEFEF"/>
<ellipse cx="246.367" cy="83.0057" rx="2.03329" ry="2.32726" fill="#EFEFEF"/>
<ellipse cx="263.989" cy="83.0057" rx="2.03329" ry="2.32726" fill="#EFEFEF"/>
<ellipse cx="281.611" cy="83.0057" rx="2.03329" ry="2.32726" fill="#EFEFEF"/>
<ellipse cx="299.233" cy="83.0057" rx="2.03329" ry="2.32726" fill="#EFEFEF"/>
<ellipse cx="316.856" cy="83.0057" rx="2.03329" ry="2.32726" fill="#EFEFEF"/>
<ellipse cx="334.475" cy="83.0057" rx="2.03329" ry="2.32726" fill="#EFEFEF"/>
<ellipse cx="352.097" cy="83.0057" rx="2.03329" ry="2.32726" fill="#EFEFEF"/>
<ellipse cx="369.719" cy="83.0057" rx="2.03329" ry="2.32726" fill="#EFEFEF"/>
<ellipse cx="387.342" cy="83.0057" rx="2.03329" ry="2.32726" fill="#EFEFEF"/>
<ellipse cx="404.964" cy="83.0057" rx="2.03329" ry="2.32726" fill="#EFEFEF"/>
<ellipse cx="422.586" cy="83.0057" rx="2.03329" ry="2.32726" fill="#EFEFEF"/>
<ellipse cx="440.208" cy="83.0057" rx="2.03329" ry="2.32726" fill="#EFEFEF"/>
<ellipse cx="457.83" cy="83.0057" rx="2.03329" ry="2.32726" fill="#EFEFEF"/>
<ellipse cx="475.45" cy="83.0057" rx="2.03329" ry="2.32726" fill="#EFEFEF"/>
<ellipse cx="493.072" cy="83.0057" rx="2.03329" ry="2.32726" fill="#EFEFEF"/>
<ellipse cx="510.694" cy="83.0057" rx="2.03329" ry="2.32726" fill="#EFEFEF"/>
<ellipse cx="246.367" cy="103.175" rx="2.03329" ry="2.32726" fill="#EFEFEF"/>
<ellipse cx="263.989" cy="103.175" rx="2.03329" ry="2.32726" fill="#EFEFEF"/>
<ellipse cx="281.611" cy="103.175" rx="2.03329" ry="2.32726" fill="#EFEFEF"/>
<ellipse cx="299.233" cy="103.175" rx="2.03329" ry="2.32726" fill="#EFEFEF"/>
<ellipse cx="316.856" cy="103.175" rx="2.03329" ry="2.32726" fill="#EFEFEF"/>
<ellipse cx="334.475" cy="103.175" rx="2.03329" ry="2.32726" fill="#EFEFEF"/>
<ellipse cx="352.097" cy="103.175" rx="2.03329" ry="2.32726" fill="#EFEFEF"/>
<ellipse cx="369.719" cy="103.175" rx="2.03329" ry="2.32726" fill="#EFEFEF"/>
<ellipse cx="387.342" cy="103.175" rx="2.03329" ry="2.32726" fill="#EFEFEF"/>
<ellipse cx="404.964" cy="103.175" rx="2.03329" ry="2.32726" fill="#EFEFEF"/>
<ellipse cx="422.586" cy="103.175" rx="2.03329" ry="2.32726" fill="#EFEFEF"/>
<ellipse cx="440.208" cy="103.175" rx="2.03329" ry="2.32726" fill="#EFEFEF"/>
<ellipse cx="457.83" cy="103.175" rx="2.03329" ry="2.32726" fill="#EFEFEF"/>
<ellipse cx="475.45" cy="103.175" rx="2.03329" ry="2.32726" fill="#EFEFEF"/>
<ellipse cx="493.072" cy="103.175" rx="2.03329" ry="2.32726" fill="#EFEFEF"/>
<ellipse cx="510.694" cy="103.175" rx="2.03329" ry="2.32726" fill="#EFEFEF"/>
<ellipse cx="246.367" cy="123.345" rx="2.03329" ry="2.32726" fill="#EFEFEF"/>
<ellipse cx="263.989" cy="123.345" rx="2.03329" ry="2.32726" fill="#EFEFEF"/>
<ellipse cx="281.611" cy="123.345" rx="2.03329" ry="2.32726" fill="#EFEFEF"/>
<ellipse cx="299.233" cy="123.345" rx="2.03329" ry="2.32726" fill="#EFEFEF"/>
<ellipse cx="316.856" cy="123.345" rx="2.03329" ry="2.32726" fill="#EFEFEF"/>
<ellipse cx="334.475" cy="123.345" rx="2.03329" ry="2.32726" fill="#EFEFEF"/>
<ellipse cx="352.097" cy="123.345" rx="2.03329" ry="2.32726" fill="#EFEFEF"/>
<ellipse cx="369.719" cy="123.345" rx="2.03329" ry="2.32726" fill="#EFEFEF"/>
<ellipse cx="387.342" cy="123.345" rx="2.03329" ry="2.32726" fill="#EFEFEF"/>
<ellipse cx="404.964" cy="123.345" rx="2.03329" ry="2.32726" fill="#EFEFEF"/>
<ellipse cx="422.586" cy="123.345" rx="2.03329" ry="2.32726" fill="#EFEFEF"/>
<ellipse cx="440.208" cy="123.345" rx="2.03329" ry="2.32726" fill="#EFEFEF"/>
<ellipse cx="457.83" cy="123.345" rx="2.03329" ry="2.32726" fill="#EFEFEF"/>
<ellipse cx="475.45" cy="123.345" rx="2.03329" ry="2.32726" fill="#EFEFEF"/>
<ellipse cx="493.072" cy="123.345" rx="2.03329" ry="2.32726" fill="#EFEFEF"/>
<ellipse cx="510.694" cy="123.345" rx="2.03329" ry="2.32726" fill="#EFEFEF"/>
<ellipse cx="246.367" cy="143.515" rx="2.03329" ry="2.32726" fill="#EFEFEF"/>
<ellipse cx="263.989" cy="143.515" rx="2.03329" ry="2.32726" fill="#EFEFEF"/>
<ellipse cx="281.611" cy="143.515" rx="2.03329" ry="2.32726" fill="#EFEFEF"/>
<ellipse cx="299.233" cy="143.515" rx="2.03329" ry="2.32726" fill="#EFEFEF"/>
<ellipse cx="316.856" cy="143.515" rx="2.03329" ry="2.32726" fill="#EFEFEF"/>
<ellipse cx="334.475" cy="143.515" rx="2.03329" ry="2.32726" fill="#EFEFEF"/>
<ellipse cx="352.097" cy="143.515" rx="2.03329" ry="2.32726" fill="#EFEFEF"/>
<ellipse cx="369.719" cy="143.515" rx="2.03329" ry="2.32726" fill="#EFEFEF"/>
<ellipse cx="387.342" cy="143.515" rx="2.03329" ry="2.32726" fill="#EFEFEF"/>
<ellipse cx="404.964" cy="143.515" rx="2.03329" ry="2.32726" fill="#EFEFEF"/>
<ellipse cx="422.586" cy="143.515" rx="2.03329" ry="2.32726" fill="#EFEFEF"/>
<ellipse cx="440.208" cy="143.515" rx="2.03329" ry="2.32726" fill="#EFEFEF"/>
<ellipse cx="457.83" cy="143.515" rx="2.03329" ry="2.32726" fill="#EFEFEF"/>
<ellipse cx="475.45" cy="143.515" rx="2.03329" ry="2.32726" fill="#EFEFEF"/>
<ellipse cx="493.072" cy="143.515" rx="2.03329" ry="2.32726" fill="#EFEFEF"/>
<ellipse cx="510.694" cy="143.515" rx="2.03329" ry="2.32726" fill="#EFEFEF"/>
<ellipse cx="246.367" cy="163.684" rx="2.03329" ry="2.32726" fill="#EFEFEF"/>
<ellipse cx="263.989" cy="163.684" rx="2.03329" ry="2.32726" fill="#EFEFEF"/>
<ellipse cx="281.611" cy="163.684" rx="2.03329" ry="2.32726" fill="#EFEFEF"/>
<ellipse cx="299.233" cy="163.684" rx="2.03329" ry="2.32726" fill="#EFEFEF"/>
<ellipse cx="316.856" cy="163.684" rx="2.03329" ry="2.32726" fill="#EFEFEF"/>
<ellipse cx="334.475" cy="163.684" rx="2.03329" ry="2.32726" fill="#EFEFEF"/>
<ellipse cx="352.097" cy="163.684" rx="2.03329" ry="2.32726" fill="#EFEFEF"/>
<ellipse cx="369.719" cy="163.684" rx="2.03329" ry="2.32726" fill="#EFEFEF"/>
<ellipse cx="387.342" cy="163.684" rx="2.03329" ry="2.32726" fill="#EFEFEF"/>
<ellipse cx="404.964" cy="163.684" rx="2.03329" ry="2.32726" fill="#EFEFEF"/>
<ellipse cx="422.586" cy="163.684" rx="2.03329" ry="2.32726" fill="#EFEFEF"/>
<ellipse cx="440.208" cy="163.684" rx="2.03329" ry="2.32726" fill="#EFEFEF"/>
<ellipse cx="457.83" cy="163.684" rx="2.03329" ry="2.32726" fill="#EFEFEF"/>
<ellipse cx="475.45" cy="163.684" rx="2.03329" ry="2.32726" fill="#EFEFEF"/>
<ellipse cx="493.072" cy="163.684" rx="2.03329" ry="2.32726" fill="#EFEFEF"/>
<ellipse cx="510.694" cy="163.684" rx="2.03329" ry="2.32726" fill="#EFEFEF"/>
<ellipse cx="246.367" cy="183.854" rx="2.03329" ry="2.32726" fill="#EFEFEF"/>
<ellipse cx="263.989" cy="183.854" rx="2.03329" ry="2.32726" fill="#EFEFEF"/>
<ellipse cx="281.611" cy="183.854" rx="2.03329" ry="2.32726" fill="#EFEFEF"/>
<ellipse cx="299.233" cy="183.854" rx="2.03329" ry="2.32726" fill="#EFEFEF"/>
<ellipse cx="316.856" cy="183.854" rx="2.03329" ry="2.32726" fill="#EFEFEF"/>
<ellipse cx="334.475" cy="183.854" rx="2.03329" ry="2.32726" fill="#EFEFEF"/>
<ellipse cx="352.097" cy="183.854" rx="2.03329" ry="2.32726" fill="#EFEFEF"/>
<ellipse cx="369.719" cy="183.854" rx="2.03329" ry="2.32726" fill="#EFEFEF"/>
<ellipse cx="387.342" cy="183.854" rx="2.03329" ry="2.32726" fill="#EFEFEF"/>
<ellipse cx="404.964" cy="183.854" rx="2.03329" ry="2.32726" fill="#EFEFEF"/>
<ellipse cx="422.586" cy="183.854" rx="2.03329" ry="2.32726" fill="#EFEFEF"/>
<ellipse cx="440.208" cy="183.854" rx="2.03329" ry="2.32726" fill="#EFEFEF"/>
<ellipse cx="457.83" cy="183.854" rx="2.03329" ry="2.32726" fill="#EFEFEF"/>
<ellipse cx="475.45" cy="183.854" rx="2.03329" ry="2.32726" fill="#EFEFEF"/>
<ellipse cx="493.072" cy="183.854" rx="2.03329" ry="2.32726" fill="#EFEFEF"/>
<ellipse cx="510.694" cy="183.854" rx="2.03329" ry="2.32726" fill="#EFEFEF"/>
<ellipse cx="246.367" cy="204.024" rx="2.03329" ry="2.32726" fill="#EFEFEF"/>
<ellipse cx="246.367" cy="360.327" rx="2.03329" ry="2.32726" fill="#EFEFEF"/>
<ellipse cx="263.989" cy="204.024" rx="2.03329" ry="2.32726" fill="#EFEFEF"/>
<ellipse cx="263.989" cy="360.327" rx="2.03329" ry="2.32726" fill="#EFEFEF"/>
<ellipse cx="281.611" cy="204.024" rx="2.03329" ry="2.32726" fill="#EFEFEF"/>
<ellipse cx="281.611" cy="360.327" rx="2.03329" ry="2.32726" fill="#EFEFEF"/>
<ellipse cx="299.233" cy="204.024" rx="2.03329" ry="2.32726" fill="#EFEFEF"/>
<ellipse cx="299.233" cy="360.327" rx="2.03329" ry="2.32726" fill="#EFEFEF"/>
<ellipse cx="316.856" cy="204.024" rx="2.03329" ry="2.32726" fill="#EFEFEF"/>
<ellipse cx="316.856" cy="360.327" rx="2.03329" ry="2.32726" fill="#EFEFEF"/>
<ellipse cx="334.475" cy="204.024" rx="2.03329" ry="2.32726" fill="#EFEFEF"/>
<ellipse cx="334.475" cy="360.327" rx="2.03329" ry="2.32726" fill="#EFEFEF"/>
<ellipse cx="352.097" cy="204.024" rx="2.03329" ry="2.32726" fill="#EFEFEF"/>
<ellipse cx="352.097" cy="360.327" rx="2.03329" ry="2.32726" fill="#EFEFEF"/>
<ellipse cx="369.719" cy="204.024" rx="2.03329" ry="2.32726" fill="#EFEFEF"/>
<ellipse cx="369.719" cy="360.327" rx="2.03329" ry="2.32726" fill="#EFEFEF"/>
<ellipse cx="387.342" cy="204.024" rx="2.03329" ry="2.32726" fill="#EFEFEF"/>
<ellipse cx="387.342" cy="360.327" rx="2.03329" ry="2.32726" fill="#EFEFEF"/>
<ellipse cx="404.964" cy="204.024" rx="2.03329" ry="2.32726" fill="#EFEFEF"/>
<ellipse cx="404.964" cy="360.327" rx="2.03329" ry="2.32726" fill="#EFEFEF"/>
<ellipse cx="422.586" cy="204.024" rx="2.03329" ry="2.32726" fill="#EFEFEF"/>
<ellipse cx="422.586" cy="360.327" rx="2.03329" ry="2.32726" fill="#EFEFEF"/>
<ellipse cx="440.208" cy="204.024" rx="2.03329" ry="2.32726" fill="#EFEFEF"/>
<ellipse cx="440.208" cy="360.327" rx="2.03329" ry="2.32726" fill="#EFEFEF"/>
<ellipse cx="457.83" cy="204.024" rx="2.03329" ry="2.32726" fill="#EFEFEF"/>
<ellipse cx="457.83" cy="360.327" rx="2.03329" ry="2.32726" fill="#EFEFEF"/>
<ellipse cx="475.45" cy="204.024" rx="2.03329" ry="2.32726" fill="#EFEFEF"/>
<ellipse cx="475.45" cy="360.327" rx="2.03329" ry="2.32726" fill="#EFEFEF"/>
<ellipse cx="493.072" cy="204.024" rx="2.03329" ry="2.32726" fill="#EFEFEF"/>
<ellipse cx="493.072" cy="360.327" rx="2.03329" ry="2.32726" fill="#EFEFEF"/>
<ellipse cx="510.694" cy="204.024" rx="2.03329" ry="2.32726" fill="#EFEFEF"/>
<ellipse cx="510.694" cy="360.327" rx="2.03329" ry="2.32726" fill="#EFEFEF"/>
<ellipse cx="246.367" cy="224.193" rx="2.03329" ry="2.32726" fill="#EFEFEF"/>
<ellipse cx="246.367" cy="380.497" rx="2.03329" ry="2.32726" fill="#EFEFEF"/>
<ellipse cx="263.989" cy="224.193" rx="2.03329" ry="2.32726" fill="#EFEFEF"/>
<ellipse cx="263.989" cy="380.497" rx="2.03329" ry="2.32726" fill="#EFEFEF"/>
<ellipse cx="281.611" cy="224.193" rx="2.03329" ry="2.32726" fill="#EFEFEF"/>
<ellipse cx="281.611" cy="380.497" rx="2.03329" ry="2.32726" fill="#EFEFEF"/>
<ellipse cx="299.233" cy="224.193" rx="2.03329" ry="2.32726" fill="#EFEFEF"/>
<ellipse cx="299.233" cy="380.497" rx="2.03329" ry="2.32726" fill="#EFEFEF"/>
<ellipse cx="316.856" cy="224.193" rx="2.03329" ry="2.32726" fill="#EFEFEF"/>
<ellipse cx="316.856" cy="380.497" rx="2.03329" ry="2.32726" fill="#EFEFEF"/>
<ellipse cx="334.475" cy="224.193" rx="2.03329" ry="2.32726" fill="#EFEFEF"/>
<ellipse cx="334.475" cy="380.497" rx="2.03329" ry="2.32726" fill="#EFEFEF"/>
<ellipse cx="352.097" cy="224.193" rx="2.03329" ry="2.32726" fill="#EFEFEF"/>
<ellipse cx="352.097" cy="380.497" rx="2.03329" ry="2.32726" fill="#EFEFEF"/>
<ellipse cx="369.719" cy="224.193" rx="2.03329" ry="2.32726" fill="#EFEFEF"/>
<ellipse cx="369.719" cy="380.497" rx="2.03329" ry="2.32726" fill="#EFEFEF"/>
<ellipse cx="387.342" cy="224.193" rx="2.03329" ry="2.32726" fill="#EFEFEF"/>
<ellipse cx="387.342" cy="380.497" rx="2.03329" ry="2.32726" fill="#EFEFEF"/>
<ellipse cx="404.964" cy="224.193" rx="2.03329" ry="2.32726" fill="#EFEFEF"/>
<ellipse cx="404.964" cy="380.497" rx="2.03329" ry="2.32726" fill="#EFEFEF"/>
<ellipse cx="422.586" cy="224.193" rx="2.03329" ry="2.32726" fill="#EFEFEF"/>
<ellipse cx="422.586" cy="380.497" rx="2.03329" ry="2.32726" fill="#EFEFEF"/>
<ellipse cx="440.208" cy="224.193" rx="2.03329" ry="2.32726" fill="#EFEFEF"/>
<ellipse cx="440.208" cy="380.497" rx="2.03329" ry="2.32726" fill="#EFEFEF"/>
<ellipse cx="457.83" cy="224.193" rx="2.03329" ry="2.32726" fill="#EFEFEF"/>
<ellipse cx="457.83" cy="380.497" rx="2.03329" ry="2.32726" fill="#EFEFEF"/>
<ellipse cx="475.45" cy="224.193" rx="2.03329" ry="2.32726" fill="#EFEFEF"/>
<ellipse cx="475.45" cy="380.497" rx="2.03329" ry="2.32726" fill="#EFEFEF"/>
<ellipse cx="493.072" cy="224.193" rx="2.03329" ry="2.32726" fill="#EFEFEF"/>
<ellipse cx="493.072" cy="380.497" rx="2.03329" ry="2.32726" fill="#EFEFEF"/>
<ellipse cx="510.694" cy="224.193" rx="2.03329" ry="2.32726" fill="#EFEFEF"/>
<ellipse cx="510.694" cy="380.497" rx="2.03329" ry="2.32726" fill="#EFEFEF"/>
<ellipse cx="246.367" cy="241.764" rx="2.03329" ry="2.32726" fill="#EFEFEF"/>
<ellipse cx="246.367" cy="398.068" rx="2.03329" ry="2.32726" fill="#EFEFEF"/>
<ellipse cx="263.989" cy="241.764" rx="2.03329" ry="2.32726" fill="#EFEFEF"/>
<ellipse cx="263.989" cy="398.068" rx="2.03329" ry="2.32726" fill="#EFEFEF"/>
<ellipse cx="281.611" cy="241.764" rx="2.03329" ry="2.32726" fill="#EFEFEF"/>
<ellipse cx="281.611" cy="398.068" rx="2.03329" ry="2.32726" fill="#EFEFEF"/>
<ellipse cx="299.233" cy="241.764" rx="2.03329" ry="2.32726" fill="#EFEFEF"/>
<ellipse cx="299.233" cy="398.068" rx="2.03329" ry="2.32726" fill="#EFEFEF"/>
<ellipse cx="316.856" cy="241.764" rx="2.03329" ry="2.32726" fill="#EFEFEF"/>
<ellipse cx="316.856" cy="398.068" rx="2.03329" ry="2.32726" fill="#EFEFEF"/>
<ellipse cx="334.475" cy="241.764" rx="2.03329" ry="2.32726" fill="#EFEFEF"/>
<ellipse cx="334.475" cy="398.068" rx="2.03329" ry="2.32726" fill="#EFEFEF"/>
<ellipse cx="352.097" cy="241.764" rx="2.03329" ry="2.32726" fill="#EFEFEF"/>
<ellipse cx="352.097" cy="398.068" rx="2.03329" ry="2.32726" fill="#EFEFEF"/>
<ellipse cx="369.719" cy="241.764" rx="2.03329" ry="2.32726" fill="#EFEFEF"/>
<ellipse cx="369.719" cy="398.068" rx="2.03329" ry="2.32726" fill="#EFEFEF"/>
<ellipse cx="387.342" cy="241.764" rx="2.03329" ry="2.32726" fill="#EFEFEF"/>
<ellipse cx="387.342" cy="398.068" rx="2.03329" ry="2.32726" fill="#EFEFEF"/>
<ellipse cx="404.964" cy="241.764" rx="2.03329" ry="2.32726" fill="#EFEFEF"/>
<ellipse cx="404.964" cy="398.068" rx="2.03329" ry="2.32726" fill="#EFEFEF"/>
<ellipse cx="422.586" cy="241.764" rx="2.03329" ry="2.32726" fill="#EFEFEF"/>
<ellipse cx="422.586" cy="398.068" rx="2.03329" ry="2.32726" fill="#EFEFEF"/>
<ellipse cx="440.208" cy="241.764" rx="2.03329" ry="2.32726" fill="#EFEFEF"/>
<ellipse cx="440.208" cy="398.068" rx="2.03329" ry="2.32726" fill="#EFEFEF"/>
<ellipse cx="457.83" cy="241.764" rx="2.03329" ry="2.32726" fill="#EFEFEF"/>
<ellipse cx="457.83" cy="398.068" rx="2.03329" ry="2.32726" fill="#EFEFEF"/>
<ellipse cx="475.45" cy="241.764" rx="2.03329" ry="2.32726" fill="#EFEFEF"/>
<ellipse cx="475.45" cy="398.068" rx="2.03329" ry="2.32726" fill="#EFEFEF"/>
<ellipse cx="493.072" cy="241.764" rx="2.03329" ry="2.32726" fill="#EFEFEF"/>
<ellipse cx="493.072" cy="398.068" rx="2.03329" ry="2.32726" fill="#EFEFEF"/>
<ellipse cx="510.694" cy="241.764" rx="2.03329" ry="2.32726" fill="#EFEFEF"/>
<ellipse cx="510.694" cy="398.068" rx="2.03329" ry="2.32726" fill="#EFEFEF"/>
<ellipse cx="246.367" cy="261.934" rx="2.03329" ry="2.32726" fill="#EFEFEF"/>
<ellipse cx="246.367" cy="418.237" rx="2.03329" ry="2.32726" fill="#EFEFEF"/>
<ellipse cx="263.989" cy="261.934" rx="2.03329" ry="2.32726" fill="#EFEFEF"/>
<ellipse cx="263.989" cy="418.237" rx="2.03329" ry="2.32726" fill="#EFEFEF"/>
<ellipse cx="281.611" cy="261.934" rx="2.03329" ry="2.32726" fill="#EFEFEF"/>
<ellipse cx="281.611" cy="418.237" rx="2.03329" ry="2.32726" fill="#EFEFEF"/>
<ellipse cx="299.233" cy="261.934" rx="2.03329" ry="2.32726" fill="#EFEFEF"/>
<ellipse cx="299.233" cy="418.237" rx="2.03329" ry="2.32726" fill="#EFEFEF"/>
<ellipse cx="316.856" cy="261.934" rx="2.03329" ry="2.32726" fill="#EFEFEF"/>
<ellipse cx="316.856" cy="418.237" rx="2.03329" ry="2.32726" fill="#EFEFEF"/>
<ellipse cx="334.475" cy="261.934" rx="2.03329" ry="2.32726" fill="#EFEFEF"/>
<ellipse cx="334.475" cy="418.237" rx="2.03329" ry="2.32726" fill="#EFEFEF"/>
<ellipse cx="352.097" cy="261.934" rx="2.03329" ry="2.32726" fill="#EFEFEF"/>
<ellipse cx="352.097" cy="418.237" rx="2.03329" ry="2.32726" fill="#EFEFEF"/>
<ellipse cx="369.719" cy="261.934" rx="2.03329" ry="2.32726" fill="#EFEFEF"/>
<ellipse cx="369.719" cy="418.237" rx="2.03329" ry="2.32726" fill="#EFEFEF"/>
<ellipse cx="387.342" cy="261.934" rx="2.03329" ry="2.32726" fill="#EFEFEF"/>
<ellipse cx="387.342" cy="418.237" rx="2.03329" ry="2.32726" fill="#EFEFEF"/>
<ellipse cx="404.964" cy="261.934" rx="2.03329" ry="2.32726" fill="#EFEFEF"/>
<ellipse cx="404.964" cy="418.237" rx="2.03329" ry="2.32726" fill="#EFEFEF"/>
<ellipse cx="422.586" cy="261.934" rx="2.03329" ry="2.32726" fill="#EFEFEF"/>
<ellipse cx="422.586" cy="418.237" rx="2.03329" ry="2.32726" fill="#EFEFEF"/>
<ellipse cx="440.208" cy="261.934" rx="2.03329" ry="2.32726" fill="#EFEFEF"/>
<ellipse cx="440.208" cy="418.237" rx="2.03329" ry="2.32726" fill="#EFEFEF"/>
<ellipse cx="457.83" cy="261.934" rx="2.03329" ry="2.32726" fill="#EFEFEF"/>
<ellipse cx="457.83" cy="418.237" rx="2.03329" ry="2.32726" fill="#EFEFEF"/>
<ellipse cx="475.45" cy="261.934" rx="2.03329" ry="2.32726" fill="#EFEFEF"/>
<ellipse cx="475.45" cy="418.237" rx="2.03329" ry="2.32726" fill="#EFEFEF"/>
<ellipse cx="493.072" cy="261.934" rx="2.03329" ry="2.32726" fill="#EFEFEF"/>
<ellipse cx="493.072" cy="418.237" rx="2.03329" ry="2.32726" fill="#EFEFEF"/>
<ellipse cx="510.694" cy="261.934" rx="2.03329" ry="2.32726" fill="#EFEFEF"/>
<ellipse cx="510.694" cy="418.237" rx="2.03329" ry="2.32726" fill="#EFEFEF"/>
<ellipse cx="246.367" cy="282.103" rx="2.03329" ry="2.32726" fill="#EFEFEF"/>
<ellipse cx="246.367" cy="438.407" rx="2.03329" ry="2.32726" fill="#EFEFEF"/>
<ellipse cx="263.989" cy="282.103" rx="2.03329" ry="2.32726" fill="#EFEFEF"/>
<ellipse cx="263.989" cy="438.407" rx="2.03329" ry="2.32726" fill="#EFEFEF"/>
<ellipse cx="281.611" cy="282.103" rx="2.03329" ry="2.32726" fill="#EFEFEF"/>
<ellipse cx="281.611" cy="438.407" rx="2.03329" ry="2.32726" fill="#EFEFEF"/>
<ellipse cx="299.233" cy="282.103" rx="2.03329" ry="2.32726" fill="#EFEFEF"/>
<ellipse cx="299.233" cy="438.407" rx="2.03329" ry="2.32726" fill="#EFEFEF"/>
<ellipse cx="316.856" cy="282.103" rx="2.03329" ry="2.32726" fill="#EFEFEF"/>
<ellipse cx="316.856" cy="438.407" rx="2.03329" ry="2.32726" fill="#EFEFEF"/>
<ellipse cx="334.475" cy="282.103" rx="2.03329" ry="2.32726" fill="#EFEFEF"/>
<ellipse cx="334.475" cy="438.407" rx="2.03329" ry="2.32726" fill="#EFEFEF"/>
<ellipse cx="352.097" cy="282.103" rx="2.03329" ry="2.32726" fill="#EFEFEF"/>
<ellipse cx="352.097" cy="438.407" rx="2.03329" ry="2.32726" fill="#EFEFEF"/>
<ellipse cx="369.719" cy="282.103" rx="2.03329" ry="2.32726" fill="#EFEFEF"/>
<ellipse cx="369.719" cy="438.407" rx="2.03329" ry="2.32726" fill="#EFEFEF"/>
<ellipse cx="387.342" cy="282.103" rx="2.03329" ry="2.32726" fill="#EFEFEF"/>
<ellipse cx="387.342" cy="438.407" rx="2.03329" ry="2.32726" fill="#EFEFEF"/>
<ellipse cx="404.964" cy="282.103" rx="2.03329" ry="2.32726" fill="#EFEFEF"/>
<ellipse cx="404.964" cy="438.407" rx="2.03329" ry="2.32726" fill="#EFEFEF"/>
<ellipse cx="422.586" cy="282.103" rx="2.03329" ry="2.32726" fill="#EFEFEF"/>
<ellipse cx="422.586" cy="438.407" rx="2.03329" ry="2.32726" fill="#EFEFEF"/>
<ellipse cx="440.208" cy="282.103" rx="2.03329" ry="2.32726" fill="#EFEFEF"/>
<ellipse cx="440.208" cy="438.407" rx="2.03329" ry="2.32726" fill="#EFEFEF"/>
<ellipse cx="457.83" cy="282.103" rx="2.03329" ry="2.32726" fill="#EFEFEF"/>
<ellipse cx="457.83" cy="438.407" rx="2.03329" ry="2.32726" fill="#EFEFEF"/>
<ellipse cx="475.45" cy="282.103" rx="2.03329" ry="2.32726" fill="#EFEFEF"/>
<ellipse cx="475.45" cy="438.407" rx="2.03329" ry="2.32726" fill="#EFEFEF"/>
<ellipse cx="493.072" cy="282.103" rx="2.03329" ry="2.32726" fill="#EFEFEF"/>
<ellipse cx="493.072" cy="438.407" rx="2.03329" ry="2.32726" fill="#EFEFEF"/>
<ellipse cx="510.694" cy="282.103" rx="2.03329" ry="2.32726" fill="#EFEFEF"/>
<ellipse cx="510.694" cy="438.407" rx="2.03329" ry="2.32726" fill="#EFEFEF"/>
<ellipse cx="246.367" cy="302.273" rx="2.03329" ry="2.32726" fill="#EFEFEF"/>
<ellipse cx="246.367" cy="458.576" rx="2.03329" ry="2.32726" fill="#EFEFEF"/>
<ellipse cx="263.989" cy="302.273" rx="2.03329" ry="2.32726" fill="#EFEFEF"/>
<ellipse cx="263.989" cy="458.576" rx="2.03329" ry="2.32726" fill="#EFEFEF"/>
<ellipse cx="281.611" cy="302.273" rx="2.03329" ry="2.32726" fill="#EFEFEF"/>
<ellipse cx="281.611" cy="458.576" rx="2.03329" ry="2.32726" fill="#EFEFEF"/>
<ellipse cx="299.233" cy="302.273" rx="2.03329" ry="2.32726" fill="#EFEFEF"/>
<ellipse cx="299.233" cy="458.576" rx="2.03329" ry="2.32726" fill="#EFEFEF"/>
<ellipse cx="316.856" cy="302.273" rx="2.03329" ry="2.32726" fill="#EFEFEF"/>
<ellipse cx="316.856" cy="458.576" rx="2.03329" ry="2.32726" fill="#EFEFEF"/>
<ellipse cx="334.475" cy="302.273" rx="2.03329" ry="2.32726" fill="#EFEFEF"/>
<ellipse cx="334.475" cy="458.576" rx="2.03329" ry="2.32726" fill="#EFEFEF"/>
<ellipse cx="352.097" cy="302.273" rx="2.03329" ry="2.32726" fill="#EFEFEF"/>
<ellipse cx="352.097" cy="458.576" rx="2.03329" ry="2.32726" fill="#EFEFEF"/>
<ellipse cx="369.719" cy="302.273" rx="2.03329" ry="2.32726" fill="#EFEFEF"/>
<ellipse cx="369.719" cy="458.576" rx="2.03329" ry="2.32726" fill="#EFEFEF"/>
<ellipse cx="387.342" cy="302.273" rx="2.03329" ry="2.32726" fill="#EFEFEF"/>
<ellipse cx="387.342" cy="458.576" rx="2.03329" ry="2.32726" fill="#EFEFEF"/>
<ellipse cx="404.964" cy="302.273" rx="2.03329" ry="2.32726" fill="#EFEFEF"/>
<ellipse cx="404.964" cy="458.576" rx="2.03329" ry="2.32726" fill="#EFEFEF"/>
<ellipse cx="422.586" cy="302.273" rx="2.03329" ry="2.32726" fill="#EFEFEF"/>
<ellipse cx="422.586" cy="458.576" rx="2.03329" ry="2.32726" fill="#EFEFEF"/>
<ellipse cx="440.208" cy="302.273" rx="2.03329" ry="2.32726" fill="#EFEFEF"/>
<ellipse cx="440.208" cy="458.576" rx="2.03329" ry="2.32726" fill="#EFEFEF"/>
<ellipse cx="457.83" cy="302.273" rx="2.03329" ry="2.32726" fill="#EFEFEF"/>
<ellipse cx="457.83" cy="458.576" rx="2.03329" ry="2.32726" fill="#EFEFEF"/>
<ellipse cx="475.45" cy="302.273" rx="2.03329" ry="2.32726" fill="#EFEFEF"/>
<ellipse cx="475.45" cy="458.576" rx="2.03329" ry="2.32726" fill="#EFEFEF"/>
<ellipse cx="493.072" cy="302.273" rx="2.03329" ry="2.32726" fill="#EFEFEF"/>
<ellipse cx="493.072" cy="458.576" rx="2.03329" ry="2.32726" fill="#EFEFEF"/>
<ellipse cx="510.694" cy="302.273" rx="2.03329" ry="2.32726" fill="#EFEFEF"/>
<ellipse cx="510.694" cy="458.576" rx="2.03329" ry="2.32726" fill="#EFEFEF"/>
<ellipse cx="246.367" cy="320.503" rx="2.03329" ry="2.32726" fill="#EFEFEF"/>
<ellipse cx="246.367" cy="476.807" rx="2.03329" ry="2.32726" fill="#EFEFEF"/>
<ellipse cx="263.989" cy="320.503" rx="2.03329" ry="2.32726" fill="#EFEFEF"/>
<ellipse cx="263.989" cy="476.807" rx="2.03329" ry="2.32726" fill="#EFEFEF"/>
<ellipse cx="281.611" cy="320.503" rx="2.03329" ry="2.32726" fill="#EFEFEF"/>
<ellipse cx="281.611" cy="476.807" rx="2.03329" ry="2.32726" fill="#EFEFEF"/>
<ellipse cx="299.233" cy="320.503" rx="2.03329" ry="2.32726" fill="#EFEFEF"/>
<ellipse cx="299.233" cy="476.807" rx="2.03329" ry="2.32726" fill="#EFEFEF"/>
<ellipse cx="316.856" cy="320.503" rx="2.03329" ry="2.32726" fill="#EFEFEF"/>
<ellipse cx="316.856" cy="476.807" rx="2.03329" ry="2.32726" fill="#EFEFEF"/>
<ellipse cx="334.475" cy="320.503" rx="2.03329" ry="2.32726" fill="#EFEFEF"/>
<ellipse cx="334.475" cy="476.807" rx="2.03329" ry="2.32726" fill="#EFEFEF"/>
<ellipse cx="352.097" cy="320.503" rx="2.03329" ry="2.32726" fill="#EFEFEF"/>
<ellipse cx="352.097" cy="476.807" rx="2.03329" ry="2.32726" fill="#EFEFEF"/>
<ellipse cx="369.719" cy="320.503" rx="2.03329" ry="2.32726" fill="#EFEFEF"/>
<ellipse cx="369.719" cy="476.807" rx="2.03329" ry="2.32726" fill="#EFEFEF"/>
<ellipse cx="387.342" cy="320.503" rx="2.03329" ry="2.32726" fill="#EFEFEF"/>
<ellipse cx="387.342" cy="476.807" rx="2.03329" ry="2.32726" fill="#EFEFEF"/>
<ellipse cx="404.964" cy="320.503" rx="2.03329" ry="2.32726" fill="#EFEFEF"/>
<ellipse cx="404.964" cy="476.807" rx="2.03329" ry="2.32726" fill="#EFEFEF"/>
<ellipse cx="422.586" cy="320.503" rx="2.03329" ry="2.32726" fill="#EFEFEF"/>
<ellipse cx="422.586" cy="476.807" rx="2.03329" ry="2.32726" fill="#EFEFEF"/>
<ellipse cx="440.208" cy="320.503" rx="2.03329" ry="2.32726" fill="#EFEFEF"/>
<ellipse cx="440.208" cy="476.807" rx="2.03329" ry="2.32726" fill="#EFEFEF"/>
<ellipse cx="457.83" cy="320.503" rx="2.03329" ry="2.32726" fill="#EFEFEF"/>
<ellipse cx="457.83" cy="476.807" rx="2.03329" ry="2.32726" fill="#EFEFEF"/>
<ellipse cx="475.45" cy="320.503" rx="2.03329" ry="2.32726" fill="#EFEFEF"/>
<ellipse cx="475.45" cy="476.807" rx="2.03329" ry="2.32726" fill="#EFEFEF"/>
<ellipse cx="493.072" cy="320.503" rx="2.03329" ry="2.32726" fill="#EFEFEF"/>
<ellipse cx="493.072" cy="476.807" rx="2.03329" ry="2.32726" fill="#EFEFEF"/>
<ellipse cx="510.694" cy="320.503" rx="2.03329" ry="2.32726" fill="#EFEFEF"/>
<ellipse cx="510.694" cy="476.807" rx="2.03329" ry="2.32726" fill="#EFEFEF"/>
<ellipse cx="246.367" cy="340.673" rx="2.03329" ry="2.32726" fill="#EFEFEF"/>
<ellipse cx="246.367" cy="496.977" rx="2.03329" ry="2.32726" fill="#EFEFEF"/>
<ellipse cx="263.989" cy="340.673" rx="2.03329" ry="2.32726" fill="#EFEFEF"/>
<ellipse cx="263.989" cy="496.977" rx="2.03329" ry="2.32726" fill="#EFEFEF"/>
<ellipse cx="281.611" cy="340.673" rx="2.03329" ry="2.32726" fill="#EFEFEF"/>
<ellipse cx="281.611" cy="496.977" rx="2.03329" ry="2.32726" fill="#EFEFEF"/>
<ellipse cx="299.233" cy="340.673" rx="2.03329" ry="2.32726" fill="#EFEFEF"/>
<ellipse cx="299.233" cy="496.977" rx="2.03329" ry="2.32726" fill="#EFEFEF"/>
<ellipse cx="316.856" cy="340.673" rx="2.03329" ry="2.32726" fill="#EFEFEF"/>
<ellipse cx="316.856" cy="496.977" rx="2.03329" ry="2.32726" fill="#EFEFEF"/>
<ellipse cx="334.475" cy="340.673" rx="2.03329" ry="2.32726" fill="#EFEFEF"/>
<ellipse cx="334.475" cy="496.977" rx="2.03329" ry="2.32726" fill="#EFEFEF"/>
<ellipse cx="352.097" cy="340.673" rx="2.03329" ry="2.32726" fill="#EFEFEF"/>
<ellipse cx="352.097" cy="496.977" rx="2.03329" ry="2.32726" fill="#EFEFEF"/>
<ellipse cx="369.719" cy="340.673" rx="2.03329" ry="2.32726" fill="#EFEFEF"/>
<ellipse cx="369.719" cy="496.977" rx="2.03329" ry="2.32726" fill="#EFEFEF"/>
<ellipse cx="387.342" cy="340.673" rx="2.03329" ry="2.32726" fill="#EFEFEF"/>
<ellipse cx="387.342" cy="496.977" rx="2.03329" ry="2.32726" fill="#EFEFEF"/>
<ellipse cx="404.964" cy="340.673" rx="2.03329" ry="2.32726" fill="#EFEFEF"/>
<ellipse cx="404.964" cy="496.977" rx="2.03329" ry="2.32726" fill="#EFEFEF"/>
<ellipse cx="422.586" cy="340.673" rx="2.03329" ry="2.32726" fill="#EFEFEF"/>
<ellipse cx="422.586" cy="496.977" rx="2.03329" ry="2.32726" fill="#EFEFEF"/>
<ellipse cx="440.208" cy="340.673" rx="2.03329" ry="2.32726" fill="#EFEFEF"/>
<ellipse cx="440.208" cy="496.977" rx="2.03329" ry="2.32726" fill="#EFEFEF"/>
<ellipse cx="457.83" cy="340.673" rx="2.03329" ry="2.32726" fill="#EFEFEF"/>
<ellipse cx="457.83" cy="496.977" rx="2.03329" ry="2.32726" fill="#EFEFEF"/>
<ellipse cx="475.45" cy="340.673" rx="2.03329" ry="2.32726" fill="#EFEFEF"/>
<ellipse cx="475.45" cy="496.977" rx="2.03329" ry="2.32726" fill="#EFEFEF"/>
<ellipse cx="493.072" cy="340.673" rx="2.03329" ry="2.32726" fill="#EFEFEF"/>
<ellipse cx="493.072" cy="496.977" rx="2.03329" ry="2.32726" fill="#EFEFEF"/>
<ellipse cx="510.694" cy="340.673" rx="2.03329" ry="2.32726" fill="#EFEFEF"/>
<ellipse cx="510.694" cy="496.977" rx="2.03329" ry="2.32726" fill="#EFEFEF"/>
<ellipse cx="525.945" cy="2.32726" rx="2.03329" ry="2.32726" fill="#EFEFEF"/>
<ellipse cx="543.567" cy="2.32726" rx="2.03329" ry="2.32726" fill="#EFEFEF"/>
<ellipse cx="525.945" cy="22.4969" rx="2.03329" ry="2.32726" fill="#EFEFEF"/>
<ellipse cx="543.567" cy="22.4969" rx="2.03329" ry="2.32726" fill="#EFEFEF"/>
<ellipse cx="525.945" cy="42.6666" rx="2.03329" ry="2.32726" fill="#EFEFEF"/>
<ellipse cx="543.567" cy="42.6666" rx="2.03329" ry="2.32726" fill="#EFEFEF"/>
<ellipse cx="525.945" cy="62.8361" rx="2.03329" ry="2.32726" fill="#EFEFEF"/>
<ellipse cx="543.567" cy="62.8361" rx="2.03329" ry="2.32726" fill="#EFEFEF"/>
<ellipse cx="525.945" cy="83.0057" rx="2.03329" ry="2.32726" fill="#EFEFEF"/>
<ellipse cx="543.567" cy="83.0057" rx="2.03329" ry="2.32726" fill="#EFEFEF"/>
<ellipse cx="525.945" cy="103.175" rx="2.03329" ry="2.32726" fill="#EFEFEF"/>
<ellipse cx="543.567" cy="103.175" rx="2.03329" ry="2.32726" fill="#EFEFEF"/>
<ellipse cx="525.945" cy="123.345" rx="2.03329" ry="2.32726" fill="#EFEFEF"/>
<ellipse cx="543.567" cy="123.345" rx="2.03329" ry="2.32726" fill="#EFEFEF"/>
<ellipse cx="525.945" cy="143.515" rx="2.03329" ry="2.32726" fill="#EFEFEF"/>
<ellipse cx="543.567" cy="143.515" rx="2.03329" ry="2.32726" fill="#EFEFEF"/>
<ellipse cx="525.945" cy="163.684" rx="2.03329" ry="2.32726" fill="#EFEFEF"/>
<ellipse cx="543.567" cy="163.684" rx="2.03329" ry="2.32726" fill="#EFEFEF"/>
<ellipse cx="525.945" cy="183.854" rx="2.03329" ry="2.32726" fill="#EFEFEF"/>
<ellipse cx="543.567" cy="183.854" rx="2.03329" ry="2.32726" fill="#EFEFEF"/>
<ellipse cx="525.945" cy="204.024" rx="2.03329" ry="2.32726" fill="#EFEFEF"/>
<ellipse cx="525.945" cy="360.327" rx="2.03329" ry="2.32726" fill="#EFEFEF"/>
<ellipse cx="543.567" cy="204.024" rx="2.03329" ry="2.32726" fill="#EFEFEF"/>
<ellipse cx="543.567" cy="360.327" rx="2.03329" ry="2.32726" fill="#EFEFEF"/>
<ellipse cx="525.945" cy="224.193" rx="2.03329" ry="2.32726" fill="#EFEFEF"/>
<ellipse cx="525.945" cy="380.497" rx="2.03329" ry="2.32726" fill="#EFEFEF"/>
<ellipse cx="543.567" cy="224.193" rx="2.03329" ry="2.32726" fill="#EFEFEF"/>
<ellipse cx="543.567" cy="380.497" rx="2.03329" ry="2.32726" fill="#EFEFEF"/>
<ellipse cx="525.945" cy="241.764" rx="2.03329" ry="2.32726" fill="#EFEFEF"/>
<ellipse cx="525.945" cy="398.068" rx="2.03329" ry="2.32726" fill="#EFEFEF"/>
<ellipse cx="543.567" cy="241.764" rx="2.03329" ry="2.32726" fill="#EFEFEF"/>
<ellipse cx="543.567" cy="398.068" rx="2.03329" ry="2.32726" fill="#EFEFEF"/>
<ellipse cx="525.945" cy="261.934" rx="2.03329" ry="2.32726" fill="#EFEFEF"/>
<ellipse cx="525.945" cy="418.237" rx="2.03329" ry="2.32726" fill="#EFEFEF"/>
<ellipse cx="543.567" cy="261.934" rx="2.03329" ry="2.32726" fill="#EFEFEF"/>
<ellipse cx="543.567" cy="418.237" rx="2.03329" ry="2.32726" fill="#EFEFEF"/>
<ellipse cx="525.945" cy="282.103" rx="2.03329" ry="2.32726" fill="#EFEFEF"/>
<ellipse cx="525.945" cy="438.407" rx="2.03329" ry="2.32726" fill="#EFEFEF"/>
<ellipse cx="543.567" cy="282.103" rx="2.03329" ry="2.32726" fill="#EFEFEF"/>
<ellipse cx="543.567" cy="438.407" rx="2.03329" ry="2.32726" fill="#EFEFEF"/>
<ellipse cx="525.945" cy="302.273" rx="2.03329" ry="2.32726" fill="#EFEFEF"/>
<ellipse cx="525.945" cy="458.576" rx="2.03329" ry="2.32726" fill="#EFEFEF"/>
<ellipse cx="543.567" cy="302.273" rx="2.03329" ry="2.32726" fill="#EFEFEF"/>
<ellipse cx="543.567" cy="458.576" rx="2.03329" ry="2.32726" fill="#EFEFEF"/>
<ellipse cx="525.945" cy="320.503" rx="2.03329" ry="2.32726" fill="#EFEFEF"/>
<ellipse cx="525.945" cy="476.807" rx="2.03329" ry="2.32726" fill="#EFEFEF"/>
<ellipse cx="543.567" cy="320.503" rx="2.03329" ry="2.32726" fill="#EFEFEF"/>
<ellipse cx="543.567" cy="476.807" rx="2.03329" ry="2.32726" fill="#EFEFEF"/>
<ellipse cx="525.945" cy="340.673" rx="2.03329" ry="2.32726" fill="#EFEFEF"/>
<ellipse cx="525.945" cy="496.977" rx="2.03329" ry="2.32726" fill="#EFEFEF"/>
<ellipse cx="543.567" cy="340.673" rx="2.03329" ry="2.32726" fill="#EFEFEF"/>
<ellipse cx="543.567" cy="496.977" rx="2.03329" ry="2.32726" fill="#EFEFEF"/>
</svg>
