<svg width="83" height="83" viewBox="0 0 83 83" fill="none" xmlns="http://www.w3.org/2000/svg">
<path d="M41.4999 11.7871C36.8697 11.7871 32.4326 12.8231 28.3134 14.8659C27.7061 15.1673 27.4579 15.9044 27.7593 16.5117C28.0601 17.119 28.7972 17.3678 29.4044 17.0658C33.1817 15.1927 37.2515 14.2428 41.4999 14.2428C55.069 14.2428 66.3526 24.2094 68.4183 37.2066C66.3457 38.2742 62.9882 39.2899 59.0166 39.2899C53.8 39.2899 49.4768 36.7646 46.2935 34.5641C41.5006 31.2516 33.9733 26.8481 23.9833 26.8481C22.0639 26.8481 20.1395 26.9912 18.2335 27.2685C19.9508 24.469 22.19 21.9645 24.8894 19.8869C25.4271 19.4727 25.5271 18.7021 25.1136 18.1645C24.7001 17.6275 23.9288 17.5268 23.3918 17.9409C16.0165 23.6173 11.7871 32.2046 11.7871 41.4999C11.7871 57.6671 25.327 71.2127 41.4999 71.2127C58.655 71.2127 73.9167 55.1488 70.9651 37.6606C69.0762 23.0841 56.583 11.7871 41.4999 11.7871ZM66.2108 52.9951C63.8406 53.4586 61.4235 53.6961 59.0166 53.6961C48.6372 53.6961 40.7084 48.2167 38.1026 46.4158C37.5713 46.0485 37.0837 45.7224 36.6113 45.4197C36.0401 45.053 35.2809 45.2189 34.9149 45.7901C34.5482 46.3607 34.7141 47.1206 35.2853 47.4866C35.7337 47.7741 36.1985 48.085 36.7063 48.4358C39.4679 50.3444 47.8709 56.1518 59.0166 56.1518C60.9252 56.1518 62.8394 56.01 64.7353 55.7358C59.9354 63.5411 51.3158 68.7571 41.4999 68.7571C27.9309 68.7571 16.6472 58.7905 14.5816 45.7933C16.6535 44.7256 20.0116 43.7099 23.9833 43.7099C26.1572 43.7099 28.2652 44.1165 30.4271 44.9536C31.0597 45.198 31.7709 44.884 32.0153 44.2514C32.2603 43.6187 31.9463 42.9083 31.3137 42.6632C28.8637 41.7152 26.4662 41.2542 23.9833 41.2542C20.0806 41.2542 16.67 42.1591 14.2979 43.2109C14.2624 42.6448 14.2428 42.0749 14.2428 41.4999C14.2428 37.451 15.1192 33.5496 16.7618 30.0098C19.1409 29.5431 21.5668 29.3038 23.9833 29.3038C33.2868 29.3038 40.3753 33.4584 44.8973 36.5841C48.3744 38.9872 53.1211 41.745 59.0166 41.745C62.9192 41.745 66.3298 40.8407 68.702 39.7883C68.7374 40.3544 68.7577 40.9249 68.7577 41.4993C68.757 45.6052 67.8433 49.5003 66.2108 52.9951Z" fill="#9DD00D"/>
<path d="M79.8229 35.3607C78.8971 35.3607 77.9884 35.0314 77.2735 34.445C76.5788 33.8751 76.1191 33.1051 75.8886 32.242C75.4086 30.4537 76.1773 28.5673 77.7585 27.6548C79.2751 26.779 79.7969 24.8324 78.9212 23.3158L75.9582 18.1841C75.3927 17.2045 74.3378 16.5953 73.2062 16.5953C72.6508 16.5953 72.1018 16.7428 71.6129 17.0253C70.7796 17.5065 69.7854 17.6712 68.8406 17.4907C67.9934 17.3298 67.2537 16.8973 66.6471 16.2926C65.3375 14.9862 65.0608 12.9687 65.9784 11.3799C66.8535 9.86332 66.3324 7.91675 64.8158 7.04098L59.684 4.07806C59.2015 3.79943 58.6525 3.65252 58.0977 3.65252C56.9655 3.65252 55.9105 4.26106 55.345 5.24068C54.6282 6.48246 53.2832 7.25375 51.835 7.25375C51.4399 7.25375 51.0542 7.19042 50.6736 7.08847C48.8866 6.61354 47.6385 5.00512 47.6385 3.17569C47.6392 1.42479 46.2144 0 44.4628 0H38.537C36.7861 0 35.3607 1.42479 35.3607 3.17696C35.3607 5.00512 34.1132 6.61418 32.3262 7.08911C31.3953 7.33797 30.4239 7.30124 29.5361 6.91433C28.7516 6.57302 28.0829 5.98284 27.6548 5.24132C27.0887 4.26106 26.0343 3.65252 24.9021 3.65252C24.3468 3.65252 23.7984 3.80006 23.3158 4.07869L18.1841 7.04161C17.4489 7.46588 16.9239 8.15041 16.7042 8.97046C16.4845 9.78987 16.5972 10.6454 17.0253 11.3869C17.737 12.6192 17.7269 14.1738 17.0265 15.4086C16.2913 16.7055 14.8881 17.5635 13.3917 17.5635C12.6895 17.5635 11.9961 17.3773 11.3799 17.0221C10.8974 16.7428 10.349 16.5959 9.79367 16.5959C8.66144 16.5959 7.60709 17.2045 7.04161 18.1841L4.07869 23.3158C3.20292 24.8331 3.72408 26.779 5.24068 27.6548C6.60974 28.4451 7.38926 30.0155 7.23222 31.5828C7.08277 33.0696 6.16774 34.4133 4.79108 35.0206C4.28386 35.2442 3.73104 35.3613 3.17632 35.3613C1.42479 35.3607 0 36.7861 0 38.537V44.4628C0 46.2137 1.42479 47.6392 3.17696 47.6392C4.68597 47.6392 6.09492 48.5213 6.77882 49.8625C7.47601 51.2315 7.39813 52.9223 6.50906 54.1856C6.17661 54.658 5.74157 55.0563 5.24068 55.345C3.72408 56.2208 3.20292 58.1674 4.07869 59.684L7.04161 64.8158C7.60709 65.7954 8.66144 66.4046 9.79367 66.4046C10.349 66.4046 10.8974 66.257 11.3869 65.9746C11.9961 65.6225 12.6895 65.437 13.3917 65.437C14.8722 65.437 16.2616 66.276 17.0037 67.5507C17.7275 68.7944 17.7427 70.3712 17.0215 71.6199C16.5972 72.3545 16.4845 73.2106 16.7042 74.03C16.9239 74.8494 17.4495 75.534 18.1841 75.9582L23.3158 78.9212C23.7984 79.1998 24.3468 79.3473 24.9021 79.3473C26.0343 79.3473 27.0893 78.7388 27.6548 77.7592C28.3716 76.5174 29.7166 75.7461 31.1648 75.7461C32.2774 75.7461 33.3919 76.1894 34.1791 76.979C34.9269 77.73 35.3613 78.7628 35.3613 79.8235C35.3613 81.5751 36.7861 82.9998 38.537 82.9998H44.4628C46.2144 82.9998 47.6392 81.5751 47.6392 79.8235C47.6392 77.9947 48.8873 76.3857 50.6882 75.9069C52.4708 75.4276 54.4091 76.1368 55.3457 77.7592C55.9112 78.7388 56.9661 79.3473 58.0977 79.3473C58.6531 79.3473 59.2015 79.2004 59.684 78.9218L64.8158 75.9589C66.333 75.0831 66.8542 73.1365 65.9746 71.6136C65.2552 70.3674 65.273 68.7925 65.9949 67.552C66.737 66.2773 68.1276 65.437 69.6081 65.437C70.3104 65.437 71.0038 65.6231 71.6199 65.9784C72.1024 66.257 72.6508 66.4046 73.2062 66.4046C74.3384 66.4046 75.3927 65.796 75.9589 64.8158L78.9218 59.684C79.7969 58.1674 79.2758 56.2215 77.7592 55.3457C76.392 54.556 75.6106 52.9881 75.7664 51.4221C75.9133 49.9492 76.8118 48.6144 78.1689 47.9982C78.6869 47.7626 79.2542 47.6392 79.8235 47.6392C81.5751 47.6392 82.9998 46.2144 82.9998 44.4628V38.537C82.9998 36.7861 81.5751 35.3607 79.8229 35.3607ZM72.8478 19.1479C73.1878 18.9522 73.6355 19.0719 73.8318 19.4119L76.7947 24.5437C76.9936 24.8875 76.8752 25.3295 76.5313 25.5277C75.5093 26.1179 74.6981 26.9595 74.1434 27.9404C73.8362 27.1951 73.5057 26.4567 73.1454 25.7272C72.8452 25.1199 72.1088 24.8704 71.5009 25.1706C70.893 25.4708 70.6435 26.2072 70.9442 26.8151C73.1859 31.3516 74.3226 36.2371 74.3226 41.3359C74.3226 59.4345 59.5985 74.1586 41.4999 74.1586C23.402 74.1586 8.6779 59.4345 8.6779 41.3359C8.6779 23.238 23.4013 8.51389 41.4999 8.51389C52.0231 8.51389 61.9839 13.6178 68.1453 22.1665C68.5424 22.7168 69.3092 22.8409 69.8595 22.4445C70.4098 22.0481 70.5339 21.2806 70.1375 20.731C69.9646 20.491 69.7873 20.2541 69.6081 20.0186C70.741 20.0186 71.8586 19.719 72.8478 19.1479C72.9592 19.0839 71.8586 19.719 72.8478 19.1479ZM57.4721 6.46916C57.802 5.91191 58.3447 6.14115 58.4561 6.2051L63.5879 9.16803C63.9324 9.36686 64.0502 9.80823 63.8482 10.159C63.2726 11.1564 62.9908 12.2601 62.9863 13.3594C61.3684 12.1139 59.6454 11.0082 57.84 10.0628C56.963 9.6037 56.065 9.18449 55.1513 8.80202C56.0992 8.2435 56.8958 7.44119 57.4721 6.46916ZM38.537 2.4557H44.4628C44.8599 2.4557 45.1835 2.77865 45.1835 3.17696C45.1835 4.31805 45.4855 5.40469 46.0219 6.35328C44.5243 6.15951 43.014 6.05819 41.4999 6.05819C39.9776 6.05819 38.4699 6.15571 36.9837 6.34442C37.5162 5.39836 37.8164 4.31425 37.8164 3.17632C37.8164 2.77865 38.14 2.4557 38.537 2.4557ZM19.4119 9.16803L24.5437 6.2051C25.0307 5.91191 25.3998 6.24626 25.5284 6.46853C26.0907 7.44245 26.8924 8.23527 27.8346 8.79315C25.0572 9.96021 22.4306 11.4876 20.0129 13.3518C20.0065 12.2532 19.7247 11.1501 19.1479 10.1521C19.0516 9.98554 18.9193 9.49668 19.4119 9.16803ZM6.46853 25.5277C6.12468 25.3295 6.00627 24.8875 6.2051 24.5437L9.16803 19.4119C9.36117 19.0769 9.79747 18.9427 10.1584 19.1517C11.1393 19.7178 12.2557 20.0173 13.3867 20.0186C11.5243 22.4641 10.0026 25.1206 8.84951 27.9284C8.29479 26.9525 7.48678 26.1154 6.46853 25.5277ZM3.17632 45.1835C2.77865 45.1835 2.4557 44.8599 2.4557 44.4628V38.537C2.4557 38.14 2.77865 37.8164 3.17696 37.8164C4.37631 37.8164 5.51614 37.4839 6.49766 36.8956C6.31529 38.3572 6.2222 39.8396 6.2222 41.3359C6.2222 42.9551 6.33302 44.5572 6.54642 46.1346C5.55414 45.528 4.39594 45.1835 3.17632 45.1835ZM10.1521 63.852C9.8114 64.0483 9.36496 63.9286 9.16803 63.5879L6.2051 58.4561C6.00627 58.1117 6.12468 57.6703 6.46853 57.4715C7.5349 56.856 8.37078 55.9663 8.92676 54.9309C10.1236 57.7969 11.7029 60.504 13.6406 62.987C12.4235 62.9414 11.2077 63.2422 10.1521 63.852C11.1412 63.2808 10.0406 63.9159 10.1521 63.852ZM25.5277 76.5313C25.3314 76.872 24.885 76.9917 24.5437 76.7947L19.4119 73.8318C19.0668 73.633 18.9541 73.184 19.1517 72.8414C19.7843 71.7459 20.0623 70.5219 20.0078 69.3162C22.5249 71.2583 25.2687 72.8351 28.174 74.0192C27.0849 74.5803 26.1566 75.4421 25.5277 76.5313C25.3979 76.7567 26.1566 75.4421 25.5277 76.5313C25.3314 76.8714 26.1566 75.4421 25.5277 76.5313ZM44.4628 80.5441H38.537C38.14 80.5441 37.8164 80.2212 37.8164 79.8229C37.8164 78.5399 37.4358 77.3248 36.769 76.2989C38.3249 76.5066 39.9035 76.6143 41.4999 76.6143C43.0957 76.6143 44.675 76.5066 46.2308 76.2989C45.564 77.3248 45.1835 78.5399 45.1835 79.8235C45.1835 80.2212 44.8599 80.5441 44.4628 80.5441ZM63.5879 73.8318L58.4561 76.7947C58.1161 76.991 57.6678 76.8707 57.4715 76.5313C56.8433 75.4421 55.915 74.5803 54.8252 74.0192C57.7311 72.8351 60.4749 71.2577 62.9927 69.3156C62.9382 70.5225 63.2175 71.7491 63.8513 72.8478C64.0502 73.1916 63.9324 73.633 63.5879 73.8318ZM76.5313 57.4721C76.8752 57.6703 76.9936 58.1123 76.7947 58.4561L73.8318 63.5879C73.6387 63.9229 73.203 64.0565 72.8414 63.8482C71.8586 63.2808 70.741 62.9813 69.6081 62.9813C69.5252 62.9813 69.4416 62.9838 69.3592 62.9876C71.297 60.504 72.8763 57.7969 74.0731 54.9309C74.6291 55.9663 75.4649 56.856 76.5313 57.4721ZM80.5441 44.4628C80.5441 44.8599 80.2212 45.1835 79.8229 45.1835C78.6039 45.1835 77.4457 45.528 76.4534 46.1346C76.6668 44.5572 76.7776 42.9551 76.7776 41.3365C76.7776 39.8377 76.6827 38.3565 76.5009 36.895C77.4824 37.4833 78.6235 37.8164 79.8235 37.8164C80.2212 37.8164 80.5441 38.14 80.5441 38.537V44.4628Z" fill="#9DD00D"/>
</svg>
