<svg width="87" height="87" viewBox="0 0 87 87" fill="none" xmlns="http://www.w3.org/2000/svg">
<path d="M87 48.355C87 37.2186 77.9399 28.1586 66.8036 28.1586C62.8555 28.1586 58.993 29.3282 55.7171 31.4783C54.8665 27.7533 53.7357 24.1645 52.3701 20.9533C48.7008 12.3255 43.8954 7.57373 38.8393 7.57373C33.7776 7.57373 28.9722 12.3059 25.309 20.8985C24.0186 23.9255 22.9375 27.2953 22.1046 30.8045L17.0345 12.2141C16.85 11.5383 16.2362 11.0693 15.5357 11.0693C14.8352 11.0693 14.2212 11.5383 14.0369 12.2142L0.0547608 63.4821C-0.072632 63.9491 0.0250487 64.449 0.318868 64.8337C0.612881 65.2186 1.06944 65.4443 1.55357 65.4443H13.9821V77.8728C13.9821 78.7308 14.6778 79.4264 15.5357 79.4264C16.3937 79.4264 17.0893 78.7308 17.0893 77.8728V65.4443H29.5179C30.002 65.4443 30.4585 65.2186 30.7524 64.8335C30.9916 64.5203 31.0982 64.1309 31.0619 63.7449C32.9841 64.6294 35.081 65.1965 37.2857 65.379V77.8728C37.2857 78.7308 37.9813 79.4264 38.8393 79.4264C39.6972 79.4264 40.3929 78.7308 40.3929 77.8728V65.3792C44.4259 65.0454 48.0993 63.4242 50.9999 60.9282C54.4981 65.3221 59.6579 68.0591 65.25 68.4895V77.8728C65.25 78.7308 65.9456 79.4264 66.8036 79.4264C67.6615 79.4264 68.3571 78.7308 68.3571 77.8728V68.4922C78.7703 67.6964 87 58.9686 87 48.355ZM27.4838 62.3371H17.0893V59.8735L19.8385 57.1243C20.4452 56.5174 20.4452 55.534 19.8385 54.9272C19.2317 54.3207 18.2482 54.3207 17.6414 54.9272L17.0893 55.4791V45.2478C17.0893 44.3899 16.3937 43.6943 15.5357 43.6943C14.6778 43.6943 13.9821 44.3899 13.9821 45.2478V52.3721L11.9736 50.3635C11.3667 49.7571 10.3833 49.7571 9.77643 50.3635C9.16976 50.9704 9.16976 51.9538 9.77643 52.5607L13.9821 56.7664V59.2288C13.9821 59.2294 13.9821 59.2302 13.9821 59.2308V62.3371H3.58758L15.5357 18.5272L20.7994 37.827C20.3898 40.8454 20.1721 43.8685 20.1721 46.7769C20.1721 52.6821 22.929 57.9547 27.2223 61.3778L27.4838 62.3371ZM40.3929 59.8735L46.1521 54.1143C46.7588 53.5074 46.7588 52.524 46.1521 51.9171C45.5453 51.3106 44.5619 51.3106 43.955 51.9171L40.3929 55.4791V48.9985L44.5986 44.7928C45.2052 44.186 45.2052 43.2026 44.5986 42.5957C43.9917 41.9892 43.0083 41.9892 42.4014 42.5957L40.3929 44.6041V40.5871C40.3929 39.7292 39.6972 39.0336 38.8393 39.0336C37.9813 39.0336 37.2857 39.7292 37.2857 40.5871V48.354C37.2857 48.3546 37.2857 48.3554 37.2857 48.3559V52.3719L33.7236 48.8098C33.1167 48.2033 32.1333 48.2033 31.5264 48.8098C30.9198 49.4166 30.9198 50.4001 31.5264 51.0069L37.2857 56.7664V59.2288C37.2857 59.2294 37.2857 59.2302 37.2857 59.2308V62.2591C29.4328 61.4768 23.2793 54.8322 23.2793 46.7769C23.2793 38.515 25.1065 29.2962 28.1672 22.1171C31.2658 14.8493 35.1556 10.6809 38.8393 10.6809C42.5162 10.6809 46.4058 14.8683 49.5108 22.1693C52.5719 29.367 54.3993 38.5663 54.3993 46.7771C54.3993 54.8326 48.2458 61.4772 40.3929 62.2592V59.8735ZM68.3571 65.373V62.9809L74.1164 57.2216C74.7231 56.6147 74.7231 55.6313 74.1164 55.0245C73.5096 54.418 72.5261 54.418 71.9193 55.0245L68.3571 58.5862V48.355C68.3571 47.497 67.6615 46.8014 66.8036 46.8014C65.9456 46.8014 65.25 47.497 65.25 48.355V55.4793L61.6879 51.9171C61.081 51.3106 60.0976 51.3106 59.4907 51.9171C58.884 52.524 58.884 53.5074 59.4907 54.1143L65.25 59.8735V62.336C65.25 62.3365 65.25 62.3373 65.25 62.3379V65.3732C60.4848 64.9394 56.1103 62.523 53.197 58.6932C55.8866 55.4581 57.5064 51.3033 57.5064 46.7769C57.5064 42.9023 57.1161 38.8161 56.395 34.8036C59.3672 32.5198 63.0396 31.2657 66.8036 31.2657C76.2266 31.2657 83.8928 38.932 83.8928 48.355C83.8928 57.2542 77.0548 64.5853 68.3571 65.373Z" fill="#9DD00D"/>
</svg>
