<svg width="85" height="86" viewBox="0 0 85 86" fill="none" xmlns="http://www.w3.org/2000/svg">
<path d="M42.4387 0.00308728C18.9999 0.00361777 -0.000530484 19.0049 1.11084e-08 42.4436C0.000176843 53.6989 4.47154 64.4932 12.4304 72.4521C28.9373 89.0923 55.8082 89.2005 72.4486 72.6938C89.089 56.1871 89.1971 29.3159 72.6904 12.6756C72.6099 12.5944 72.5291 12.5137 72.4481 12.4333C64.5064 4.44828 53.7004 -0.0276814 42.4387 0.00308728ZM42.4387 82.053C20.5639 82.0544 2.82984 64.3224 2.82842 42.4476C2.82771 32.4303 6.62288 22.7848 13.4493 15.4538L28.3679 30.3725C28.3176 30.8576 28.2924 31.3451 28.2922 31.8328C28.2924 32.8996 28.7749 33.9093 29.6052 34.5793C27.6404 36.9314 27.9106 40.4211 30.214 42.4427C27.8701 44.4999 27.6379 48.0679 29.6952 50.4118C29.8566 50.5959 30.0299 50.7692 30.214 50.9306C27.8701 52.9879 27.6379 56.5558 29.6952 58.8997C29.8566 59.0838 30.0299 59.2571 30.214 59.4185C28.9923 60.4905 28.292 62.037 28.2922 63.6625V69.6748C28.2922 69.7775 28.2947 69.8797 28.2991 69.9812C28.3859 72.0326 29.4637 73.9141 31.1894 75.0267C32.9566 76.1859 35.1722 76.4287 37.1486 75.6796L41.1804 74.1438C41.9911 73.8345 42.8877 73.8345 43.6985 74.1438L47.7302 75.6796C49.7067 76.4281 51.922 76.1853 53.6894 75.0267C55.4151 73.9141 56.4929 72.0326 56.5798 69.9812C56.5842 69.8797 56.5867 69.7775 56.5867 69.6748V63.6625C56.5868 62.037 55.8866 60.4905 54.6648 59.4185C55.158 58.9844 55.5723 58.4681 55.8894 57.8926L69.4291 71.4321C62.1141 78.2819 52.4601 82.0807 42.4387 82.053ZM38.9956 15.5643H45.8818L52.1379 25.9913C53.1966 27.7559 53.7558 29.775 53.7559 31.8328C53.7559 32.2234 53.4392 32.5401 53.0486 32.5401H34.5368L31.3892 29.3925C31.6527 28.1934 32.1089 27.0449 32.74 25.9919L38.9956 15.5643ZM38.1948 12.735V9.90566H46.6827V12.735H38.1948ZM50.9266 41.028H43.0247L37.3661 35.3694H50.9266C52.4893 35.3694 53.7559 36.6361 53.7559 38.1987C53.7559 39.7614 52.4891 41.028 50.9266 41.028ZM53.7559 46.6866C53.7535 48.0421 52.7913 49.2058 51.4605 49.4629L45.8549 43.8573H50.9266C52.4884 43.8591 53.754 45.1249 53.7559 46.6866ZM33.4169 35.4225L39.0234 41.028H33.9508C32.3881 41.0241 31.1247 39.7545 31.1284 38.1918C31.1317 36.8403 32.0903 35.6799 33.4169 35.4216V35.4225ZM33.9508 43.8573H41.8527L47.5113 49.5159H33.9508C32.3881 49.5159 31.1215 48.2493 31.1215 46.6866C31.1215 45.124 32.3881 43.8573 33.9508 43.8573ZM33.9508 52.3453H50.3406L53.7038 55.7084C53.4467 57.0396 52.2824 58.0017 50.9266 58.0039H33.9508C32.3881 58.0039 31.1215 56.7372 31.1215 55.1746C31.1215 53.6119 32.3881 52.3453 33.9508 52.3453ZM33.9508 60.8332H50.9266C52.4884 60.8349 53.7542 62.1007 53.7559 63.6625V69.6748C53.7559 69.7349 53.7545 69.7945 53.7519 69.8539C53.7009 70.9967 53.0981 72.0436 52.1355 72.6616C51.1303 73.3309 49.863 73.4704 48.7364 73.0356L46.2829 72.1009L46.915 71.848C47.6738 71.5432 48.5208 71.5432 49.2796 71.848C50.0083 72.1299 50.8274 71.7677 51.1093 71.039C51.3866 70.322 51.0407 69.5147 50.3302 69.2212C48.8973 68.6452 47.2973 68.6452 45.8645 69.2212L40.1502 71.5069C40.1433 71.5096 40.1371 71.5131 40.1303 71.5159L36.141 73.0356C35.0144 73.4703 33.7471 73.3307 32.742 72.6616C31.7793 72.0436 31.1765 70.9967 31.1256 69.8539C31.1229 69.7945 31.1215 69.7349 31.1215 69.6748V63.6625C31.1233 62.1007 32.389 60.8349 33.9508 60.8332ZM71.4281 69.4316L56.5499 54.5539C56.395 53.153 55.7221 51.8607 54.6634 50.9306C57.0073 48.8733 57.2395 45.3054 55.1823 42.9615C55.0208 42.7774 54.8475 42.6041 54.6634 42.4427C56.9668 40.4211 57.237 36.9314 55.2723 34.5793C56.1025 33.9093 56.5851 32.8996 56.5852 31.8328C56.5851 29.2622 55.8866 26.74 54.5641 24.5357L48.9905 15.246C49.3206 14.9777 49.5122 14.5749 49.512 14.1496V9.19833C49.5107 8.027 48.5613 7.07759 47.39 7.07635H37.4874C36.3161 7.07759 35.3667 8.027 35.3654 9.19833V14.1496C35.3653 14.5749 35.5568 14.9777 35.8869 15.246L30.3134 24.5357C29.825 25.35 29.4197 26.2113 29.1033 27.1066L15.4498 13.4531C31.4582 -1.45454 56.5205 -0.56242 71.4281 15.446C85.5911 30.6546 85.5909 54.223 71.4281 69.4316Z" fill="#9DD00D"/>
<path d="M47.6542 27.6228L48.5247 29.0375C48.9342 29.7029 49.8055 29.9103 50.4711 29.5008C51.1365 29.0912 51.3439 28.22 50.9346 27.5544L50.064 26.1397C49.6545 25.4743 48.7832 25.2669 48.1176 25.6764C47.452 26.086 47.2446 26.9574 47.6542 27.6228Z" fill="#9DD00D"/>
<path d="M45.2603 23.7323C45.6698 24.3977 46.5412 24.6052 47.2066 24.1956C47.8721 23.7861 48.0795 22.9148 47.6701 22.2492L45.0583 18.0053C44.6454 17.342 43.7729 17.1392 43.1096 17.5521C42.4513 17.962 42.2456 18.8256 42.6488 19.4882L45.2603 23.7323Z" fill="#9DD00D"/>
</svg>
