<svg width="82" height="82" viewBox="0 0 82 82" fill="none" xmlns="http://www.w3.org/2000/svg">
<path d="M81.5309 5.81452L76.1871 0.470824C75.5617 -0.154257 74.5479 -0.154417 73.922 0.470824L64.0215 10.3712L63.3692 9.71891C61.0818 7.43159 57.36 7.43127 55.0722 9.71891L37.9093 26.8818L37.2228 26.1952C36.5972 25.57 35.5834 25.57 34.9577 26.1952C34.3323 26.8206 34.3323 27.8347 34.9577 28.4603L35.6443 29.1469L17.2789 47.512L17.2793 47.5124C17.1407 47.6509 17.0267 47.815 16.9457 47.9994L10.6113 62.3915L0.470149 72.5327C-0.155252 73.1581 -0.155252 74.1722 0.470149 74.7978L7.20398 81.5316C7.51676 81.8442 7.9266 82.0007 8.33643 82.0007C8.74626 82.0007 9.1561 81.8442 9.46888 81.5316L19.6101 71.3903L34.0022 65.0559C34.1866 64.9749 34.3507 64.8607 34.4892 64.7223L34.4896 64.7226L52.8549 46.3572L53.5415 47.0437C53.8543 47.3564 54.2641 47.5128 54.6739 47.5128C55.0838 47.5128 55.4936 47.3564 55.8064 47.0437C56.4318 46.4183 56.4318 45.4042 55.8064 44.7787L40.1744 29.1467L52.3248 16.9963L65.0053 29.6768L61.9146 32.7675C61.2892 33.3929 61.2892 34.407 61.9146 35.0325C62.5402 35.6578 63.554 35.6578 64.1797 35.0325L72.283 26.9292C74.5703 24.6417 74.5703 20.9199 72.283 18.6323L71.6307 17.98L81.5311 8.07942C82.1563 7.45401 82.1563 6.43992 81.5309 5.81452ZM25.6744 43.6467C27.8238 41.4973 30.8017 40.6717 33.5895 41.1651L23.3933 51.3612L20.6764 48.6443L25.6744 43.6467ZM25.6582 53.6264L36.8483 42.4364C37.3823 42.7784 37.8885 43.1805 38.3547 43.6469C38.8211 44.1132 39.2231 44.6195 39.565 45.1533L28.375 56.3434L25.6582 53.6264ZM8.33643 78.1339L3.86765 73.6652L4.54495 72.9879C5.77701 71.7558 7.78198 71.756 9.01372 72.9877C10.2456 74.2199 10.2458 76.2247 9.01372 77.4566L8.33643 78.1339ZM12.9165 73.5539C12.6362 72.5162 12.0916 71.5358 11.2786 70.7228C10.4657 69.9099 9.48537 69.3652 8.44774 69.0851L11.9561 65.5768L16.4248 70.0455L12.9165 73.5539ZM19.0475 68.1383L13.8633 62.9541L18.9343 51.4323L30.5693 63.0673L19.0475 68.1383ZM38.3549 56.3272L33.3571 61.3251L30.6403 58.6083L40.8363 48.4121C41.3299 51.1999 40.5043 54.1778 38.3549 56.3272ZM50.5898 44.0923L44.1659 50.5164C44.3078 47.226 43.1267 43.8887 40.6198 41.3818C38.1129 38.8749 34.7758 37.6936 31.4854 37.8357L37.9093 31.4118L50.5898 44.0923ZM70.0178 24.6643L67.2702 27.4119L54.5897 14.7314L57.3373 11.9838C58.3757 10.9455 60.0657 10.9452 61.1043 11.9838L70.0178 20.8973C71.0564 21.9359 71.0564 23.6259 70.0178 24.6643ZM69.3655 15.7151L66.2865 12.6361L75.0546 3.86817L78.1334 6.94697L69.3655 15.7151Z" fill="#9DD00D"/>
<path d="M57.9511 37.394C57.5283 37.394 57.1167 37.5654 56.8189 37.8635C56.5194 38.1612 56.3496 38.5744 56.3496 38.9956C56.3496 39.4168 56.5194 39.83 56.8189 40.1279C57.1167 40.4258 57.5285 40.5971 57.9511 40.5971C58.3724 40.5971 58.7856 40.4259 59.0834 40.1279C59.3812 39.83 59.5527 39.4168 59.5527 38.9956C59.5527 38.5744 59.3813 38.1612 59.0834 37.8635C58.7856 37.5656 58.3724 37.394 57.9511 37.394Z" fill="#9DD00D"/>
</svg>
