<svg width="76" height="85" viewBox="0 0 76 85" fill="none" xmlns="http://www.w3.org/2000/svg">
<path d="M61.3857 42.6733C60.9535 42.6733 60.5295 42.8492 60.2239 43.155C59.9183 43.4604 59.7424 43.8844 59.7424 44.3166C59.7424 44.7487 59.9183 45.1727 60.2239 45.4783C60.5295 45.784 60.9535 45.9598 61.3857 45.9598C61.8178 45.9598 62.2418 45.7842 62.5474 45.4783C62.8531 45.1727 63.0289 44.7487 63.0289 44.3166C63.0289 43.8844 62.8531 43.4604 62.5474 43.155C62.2418 42.8492 61.8178 42.6733 61.3857 42.6733Z" fill="#9DD00D"/>
<path d="M75.6215 67.6214L71.5029 54.3452C71.3623 53.8919 71.0325 53.5215 70.5985 53.3294L62.0299 49.538C60.2207 48.7377 58.1213 49.1927 56.806 50.6708L55.2377 52.4332H48.7177C48.3654 52.4332 48.0226 52.5462 47.7397 52.7561L45.633 54.3165C44.5539 53.753 43.3044 53.5655 42.0943 53.801C40.5922 54.094 39.2796 55.015 38.493 56.3278L36.5798 59.5211C36.4268 59.7763 36.3461 60.0681 36.3461 60.3657V67.0563C36.3461 68.4532 37.3373 69.6799 38.7027 69.9731L40.9306 70.4516L40.1085 72.4923C39.7041 73.4965 39.8758 74.6428 40.5569 75.484L44.8983 80.8475H13.8767L5.65727 34.1793H19.389C20.2965 34.1793 21.0322 33.4435 21.0322 32.5361C21.0322 31.6287 20.2965 30.8929 19.389 30.8929H5.07836L4.03639 24.9772H31.6156H63.1231L60.9146 37.5161C60.7572 38.4097 61.3542 39.262 62.2479 39.4194C63.1415 39.5765 63.9939 38.9799 64.1513 38.0861L66.6993 23.6191C66.7836 23.1409 66.6518 22.6497 66.3396 22.2777C66.0274 21.9057 65.5666 21.6909 65.0809 21.6909H64.7052L61.2262 13.0493C61.0807 12.6881 60.8119 12.3902 60.4673 12.209L48.1672 5.73365C47.7474 5.51264 47.2523 5.48371 46.8092 5.65494L38.07 9.03293C37.0384 9.43175 36.2208 10.1724 35.7199 11.0929L32.1526 9.40102L31.6241 6.18981C31.2722 4.05147 29.6797 2.35812 27.5672 1.87583L19.5339 0.0413271C18.9591 -0.0901315 18.3573 0.0970327 17.958 0.531503L13.5742 5.30279L10.7612 4.40395C8.11966 3.55998 5.2905 4.529 3.72121 6.81556L1.09483 10.6425C0.0655133 12.1421 -0.257382 14.0106 0.208639 15.7687L1.78581 21.7194C1.41149 21.7872 1.06838 21.9816 0.819922 22.2776C0.507707 22.6496 0.37592 23.1407 0.460218 23.6189L10.8793 82.7753C11.0177 83.5608 11.7001 84.1336 12.4977 84.1336H48.3403C48.3412 84.1336 48.3422 84.1338 48.3432 84.1338C48.3444 84.1338 48.3453 84.1336 48.3465 84.1336H54.6623C55.4599 84.1336 56.1422 83.5609 56.2807 82.7753L56.5502 81.2446L58.2453 82.9996C58.9416 83.7203 59.9157 84.1336 60.9177 84.1336H66.5568C68.0487 84.1336 69.3906 83.2468 69.9754 81.874L75.5644 68.7521C75.7165 68.3939 75.7369 67.9933 75.6215 67.6214ZM39.255 12.0982L47.2978 8.98955L58.4031 14.8358L61.1626 21.6908H34.1539L38.1594 17.6852C38.491 17.3534 38.6652 16.896 38.6379 16.4278L38.4587 13.3497C38.4585 13.3453 38.4582 13.341 38.4578 13.3366C38.4263 12.7925 38.7466 12.2949 39.255 12.0982ZM3.80453 12.5021L6.43074 8.6752C7.17299 7.59379 8.5114 7.13516 9.76059 7.53463L13.5739 8.75309C14.1838 8.94798 14.8512 8.77117 15.2842 8.29956L19.7325 3.45794L26.8354 5.07981C27.6403 5.26352 28.2471 5.90882 28.3812 6.72353L29.0494 10.7838C29.1368 11.3155 29.4795 11.7707 29.9666 12.0016L35.2337 14.4996L35.3142 15.8827L30.7038 20.4932C30.4546 20.7423 30.2923 21.0649 30.2404 21.4132L30.199 21.6909H5.1781L3.38534 14.9269C3.16498 14.0952 3.31764 13.2115 3.80453 12.5021ZM66.9513 80.5862C66.8838 80.7448 66.7289 80.8473 66.5565 80.8473H60.9174C60.8017 80.8473 60.6891 80.7995 60.6088 80.7163L58.8486 78.8942C58.1305 78.1509 57.1693 77.7565 56.1849 77.7565C55.7032 77.7565 55.2159 77.851 54.749 78.0454L48.8464 80.5011L43.2237 73.5546L44.1137 71.3455C44.4433 70.5271 44.395 69.6109 43.9812 68.8317C43.5675 68.0524 42.8354 67.4993 41.973 67.314L39.6326 66.8111V60.8202L41.3121 58.0169C41.6249 57.4948 42.1262 57.1432 42.7234 57.0267C43.3207 56.9105 43.9172 57.0477 44.4034 57.414L44.6967 57.635C45.2782 58.0732 46.0787 58.0765 46.6635 57.6429L49.26 55.7196H55.975C56.444 55.7196 56.8908 55.5192 57.2025 55.1687L59.261 52.8557C59.6235 52.4485 60.2016 52.3232 60.7002 52.5436L68.5854 56.0327L72.304 68.0192L66.9513 80.5862Z" fill="#9DD00D"/>
<path d="M61.378 62.9003L62.1187 59.4082C62.307 58.5205 61.7401 57.6482 60.8523 57.4598C59.9644 57.271 59.0922 57.8384 58.9039 58.7263L57.9779 63.0907C57.8624 63.635 58.0302 64.2004 58.4234 64.5936L61.8602 68.0303C62.1812 68.351 62.6017 68.5116 63.0222 68.5116C63.4427 68.5116 63.8633 68.351 64.1841 68.0303C64.8258 67.3886 64.8258 66.3481 64.1841 65.7063L61.378 62.9003Z" fill="#9DD00D"/>
<path d="M24.799 31.3743C24.4934 31.6799 24.3192 32.1039 24.3192 32.5361C24.3192 32.9682 24.4934 33.3922 24.799 33.6977C25.1063 34.0033 25.5303 34.1793 25.9624 34.1793C26.3946 34.1793 26.8169 34.0035 27.1242 33.6977C27.4298 33.3922 27.6057 32.9682 27.6057 32.5361C27.6057 32.1039 27.4298 31.6799 27.1242 31.3743C26.8186 31.0686 26.3946 30.8928 25.9624 30.8928C25.5286 30.8928 25.1063 31.0686 24.799 31.3743Z" fill="#9DD00D"/>
<path d="M15.5938 19.2322C15.6501 19.2322 15.707 19.2292 15.7643 19.2233L19.6363 18.824C20.6429 18.72 21.5165 18.0382 21.8619 17.0869L23.2808 13.178C23.5904 12.325 23.15 11.3823 22.2969 11.0727C21.4439 10.7631 20.5013 11.2035 20.1915 12.0565L18.907 15.5952L15.4273 15.9541C14.5245 16.0471 13.8682 16.8544 13.9614 17.7572C14.0485 18.6026 14.762 19.2322 15.5938 19.2322Z" fill="#9DD00D"/>
</svg>
