<svg width="84" height="84" viewBox="0 0 84 84" fill="none" xmlns="http://www.w3.org/2000/svg">
<path d="M82.8492 20.4444C82.567 19.3949 81.8785 18.5002 80.9364 17.9577C79.9936 17.4126 78.8727 17.2652 77.8212 17.5474C76.771 17.8303 75.8763 18.5182 75.3339 19.4603L74.6506 20.6492C74.0014 20.2763 73.1721 20.4958 72.7925 21.1416L69.3217 27.0577L68.1327 26.3745C67.8178 26.1924 67.4428 26.143 67.0919 26.2377C66.7403 26.3332 66.4414 26.564 66.2606 26.8803C65.8903 27.5335 66.1158 28.3635 66.7663 28.7384L67.9552 29.4216L56.3406 49.5492L53.4709 57.2154L52.1045 59.7701C51.3045 61.1619 51.3899 62.8919 52.3233 64.1976L49.2489 67.9687L48.3882 65.8103C47.9998 64.8482 47.1011 64.189 46.0676 64.1082C45.0335 64.0268 44.0427 64.5379 43.5096 65.4273L43.0178 66.2606L42.5535 60.7949C42.4467 59.5019 41.4452 58.4624 40.1575 58.3062C38.8692 58.1508 37.6495 58.9227 37.2379 60.1531L33.8765 70.2372C33.6416 70.9504 34.0259 71.719 34.7372 71.9592C34.8706 72.0213 35.0141 72.0586 35.1608 72.068C35.748 72.07 36.2711 71.6957 36.4592 71.1392L39.8066 61.0551L40.285 66.6022C40.3837 67.7859 41.2344 68.77 42.3913 69.0382C43.5483 69.3064 44.7452 68.7967 45.3544 67.7779L45.8601 66.9439L46.7075 69.0896C47.0671 69.9936 47.8804 70.6388 48.8432 70.7823C49.806 70.9257 50.7721 70.5461 51.3806 69.7861L54.5645 65.7556C54.9167 65.8476 55.2797 65.8937 55.644 65.8923C57.1085 65.9037 58.4683 65.1324 59.2102 63.8694L60.5766 61.5875L65.7828 55.2611L77.5203 34.8874L78.7092 35.5706C79.0262 35.7521 79.257 36.0516 79.3511 36.4046C79.4458 36.7549 79.3965 37.1285 79.215 37.4428L73.7492 46.9124C73.5431 47.2233 73.473 47.605 73.5558 47.9692C73.6385 48.3329 73.866 48.6471 74.1863 48.8386C74.5012 49.0214 74.8762 49.0708 75.2271 48.9761C75.5787 48.8806 75.8776 48.6498 76.0584 48.3335L81.5242 38.8639C82.0693 37.9212 82.2167 36.8003 81.9338 35.7487C81.6509 34.6986 80.9631 33.8038 80.021 33.2614L78.832 32.5782L82.2481 26.6614C82.6211 26.0122 82.4015 25.1836 81.7564 24.8033L82.4396 23.6143C82.9994 22.6569 83.1475 21.5133 82.8492 20.4444ZM77.6978 20.8267C77.8786 20.5105 78.1788 20.2789 78.5318 20.1849C78.8827 20.0981 79.2537 20.1468 79.5699 20.3216C79.8869 20.5025 80.1177 20.8027 80.2124 21.155C80.2992 21.5059 80.2505 21.8769 80.0757 22.1932L79.3925 23.3821L77.0145 22.0157L77.6978 20.8267ZM59.0734 58.9781L58.3902 58.5818L56.3679 57.4062L58.3081 52.214L62.6123 54.7007L59.0734 58.9781ZM54.9741 62.9266C54.397 62.5243 54.2195 61.7503 54.5645 61.1365L55.2477 59.9482L57.6249 61.3147L56.9417 62.4896C56.7502 62.8219 56.4286 63.0581 56.0543 63.1415C55.68 63.2242 55.2884 63.1468 54.9741 62.9266ZM64.1702 52.4602L59.4424 49.7273L70.3739 30.7881L75.1017 33.5209L64.1702 52.4602ZM76.4681 31.157L71.7403 28.4242L74.4732 23.6964L79.201 26.4292L76.4681 31.157Z" fill="#9DD00D" stroke="#9DD00D" stroke-width="0.5"/>
<path d="M22.562 62.2436L17.7255 67.0675L14.8285 64.1705C14.2954 63.6407 13.4347 63.6407 12.9016 64.1705C12.6427 64.4273 12.4973 64.7763 12.4973 65.1406C12.4973 65.5049 12.6427 65.8545 12.9016 66.1107L15.7986 69.0077C16.311 69.5161 17.0035 69.801 17.7255 69.8003C18.4514 69.8043 19.1499 69.5194 19.6657 69.0077L24.4889 64.1705C24.9533 63.628 24.9219 62.82 24.4175 62.3156C23.9124 61.8106 23.1045 61.7792 22.562 62.2436Z" fill="#9DD00D" stroke="#9DD00D" stroke-width="0.5"/>
<path d="M6.46573 65.919C6.46573 72.3342 11.6659 77.5337 18.0804 77.5337C24.4949 77.5337 29.6951 72.3342 29.6951 65.919C29.6951 65.1644 29.0833 64.5526 28.3287 64.5526C27.5741 64.5526 26.9622 65.1644 26.9622 65.919C26.9622 70.8243 22.9857 74.8008 18.0804 74.8008C13.1751 74.8008 9.1986 70.8243 9.1986 65.919C9.1986 61.0137 13.1751 57.0372 18.0804 57.0372C20.0033 57.0318 21.8748 57.6557 23.4094 58.8139C24.0132 59.267 24.8699 59.1442 25.3223 58.5404C25.7753 57.9366 25.6532 57.0805 25.0494 56.6275C21.5299 53.9881 16.8207 53.5637 12.8862 55.5306C8.95106 57.4982 6.46573 61.5201 6.46573 65.919Z" fill="#9DD00D" stroke="#9DD00D" stroke-width="0.5"/>
<path d="M50.1917 11.945C50.9463 11.945 51.5581 11.3339 51.5581 10.5786C51.5581 9.82398 50.9463 9.21216 50.1917 9.21216H14.6643C13.9097 9.21216 13.2979 9.82398 13.2979 10.5786V16.0443C13.2979 16.7996 13.9097 17.4108 14.6643 17.4108H50.1917C50.9463 17.4108 51.5581 16.7996 51.5581 16.0443C51.5581 15.2897 50.9463 14.6779 50.1917 14.6779H16.0308V11.945H50.1917Z" fill="#9DD00D" stroke="#9DD00D" stroke-width="0.5"/>
<path d="M18.7636 20.1438C18.009 20.1438 17.3972 20.7556 17.3972 21.5102C17.3972 22.2655 18.009 22.8767 18.7636 22.8767H46.0923C46.8469 22.8767 47.4587 22.2655 47.4587 21.5102C47.4587 20.7556 46.8469 20.1438 46.0923 20.1438H18.7636Z" fill="#9DD00D" stroke="#9DD00D" stroke-width="0.5"/>
<path d="M54.2909 29.7087H24.2294C23.4748 29.7087 22.8629 30.3206 22.8629 31.0752C22.8629 31.8304 23.4748 32.4416 24.2294 32.4416H54.2909C55.0456 32.4416 55.6574 31.8304 55.6574 31.0752C55.6574 30.3206 55.0456 29.7087 54.2909 29.7087Z" fill="#9DD00D" stroke="#9DD00D" stroke-width="0.5"/>
<path d="M40.6266 39.2737C40.6266 38.5191 40.0148 37.9072 39.2601 37.9072H11.9315C11.1769 37.9072 10.565 38.5191 10.565 39.2737C10.565 40.0289 11.1769 40.6401 11.9315 40.6401H39.2601C40.0148 40.6401 40.6266 40.0289 40.6266 39.2737Z" fill="#9DD00D" stroke="#9DD00D" stroke-width="0.5"/>
<path d="M54.2909 37.9072H44.7259C43.9713 37.9072 43.3595 38.5191 43.3595 39.2737C43.3595 40.0289 43.9713 40.6401 44.7259 40.6401H54.2909C55.0455 40.6401 55.6574 40.0289 55.6574 39.2737C55.6574 38.5191 55.0455 37.9072 54.2909 37.9072Z" fill="#9DD00D" stroke="#9DD00D" stroke-width="0.5"/>
<path d="M25.5958 47.4724C26.3504 47.4724 26.9622 46.8612 26.9622 46.1059C26.9622 45.3513 26.3504 44.7395 25.5958 44.7395H11.9315C11.1769 44.7395 10.565 45.3513 10.565 46.1059C10.565 46.8612 11.1769 47.4724 11.9315 47.4724H25.5958Z" fill="#9DD00D" stroke="#9DD00D" stroke-width="0.5"/>
<path d="M31.0615 47.4724H40.6266C41.3812 47.4724 41.993 46.8612 41.993 46.1059C41.993 45.3513 41.3812 44.7395 40.6266 44.7395H31.0615C30.3069 44.7395 29.6951 45.3513 29.6951 46.1059C29.6951 46.8612 30.3069 47.4724 31.0615 47.4724Z" fill="#9DD00D" stroke="#9DD00D" stroke-width="0.5"/>
<path d="M62.4895 63.8696C61.7349 63.8696 61.1231 64.4815 61.1231 65.2361V78.9004C61.1231 79.6557 60.5112 80.2668 59.7566 80.2668H5.0993C4.34469 80.2668 3.73287 79.6557 3.73287 78.9004V5.11297C3.73287 4.35837 4.34469 3.74654 5.0993 3.74654H59.7566C60.5112 3.74654 61.1231 4.35837 61.1231 5.11297V30.775C61.1231 31.5296 61.7349 32.1414 62.4895 32.1414C63.2441 32.1414 63.8559 31.5296 63.8559 30.775V5.11297C63.8559 2.84915 62.0205 1.01367 59.7566 1.01367H5.0993C2.83548 1.01367 1 2.84915 1 5.11297V78.9004C1 81.1649 2.83548 82.9997 5.0993 82.9997H59.7566C62.0205 82.9997 63.8559 81.1649 63.8559 78.9004V65.2361C63.8559 64.4815 63.2441 63.8696 62.4895 63.8696Z" fill="#9DD00D" stroke="#9DD00D" stroke-width="0.5"/>
</svg>
