<svg width="84" height="88" viewBox="0 0 84 88" fill="none" xmlns="http://www.w3.org/2000/svg">
<path d="M70.1404 33.7703C69.4794 33.1096 68.4079 33.1096 67.747 33.7703C67.0862 34.4313 67.0862 35.5028 67.747 36.1636C67.7731 36.1897 67.8002 36.2162 67.8264 36.2406C68.153 36.5464 68.5685 36.6977 68.9831 36.6977C69.4345 36.6977 69.8854 36.5178 70.2184 36.1622C70.8574 35.4804 70.8224 34.4093 70.1404 33.7703Z" fill="#9DD00D"/>
<path d="M66.7023 30.9909C65.7336 30.3331 64.7391 29.7464 63.7465 29.2467C58.1306 26.4208 52.1795 25.8536 46.5362 27.6061C45.6437 27.8834 45.1447 28.8316 45.4221 29.7241C45.6992 30.6167 46.6471 31.1153 47.5401 30.8383C52.3298 29.3506 57.4077 29.8458 62.2248 32.2697C63.0745 32.6977 63.9654 33.224 64.8014 33.791C65.0926 33.9887 65.4231 34.0836 65.7502 34.0836C66.2921 34.0836 66.8246 33.8239 67.1519 33.3416C67.6768 32.5684 67.4755 31.5158 66.7023 30.9909Z" fill="#9DD00D"/>
<path d="M82.0978 52.8901C81.4039 51.4348 80.2551 49.0247 80.2344 48.2275C82.2133 43.3498 81.4914 37.9521 78.1953 33.0146C73.1265 25.421 62.7379 19.9094 53.4937 19.9094C48.6072 19.9094 43.8356 21.0747 39.5427 23.2991C38.3111 16.551 32.393 11.4183 25.2947 11.4183C17.3063 11.4183 10.8075 17.9171 10.8075 25.9054C10.8075 30.9877 13.3976 35.6087 17.7355 38.2663C18.9861 39.0326 19.269 39.6949 19.3695 40.7801V46.5579V50.6824C19.3695 52.572 20.9064 54.1092 22.7955 54.1092H23.3708C24.3004 61.5172 27.8855 68.243 33.5765 73.1923C33.6302 73.3595 33.7867 74.1431 33.1142 76.4813C32.5905 78.3028 31.7867 80.3262 31.0778 82.1115C30.6033 83.3061 30.1934 84.3379 29.9457 85.118C29.7824 85.6322 29.8741 86.1937 30.1927 86.6295C30.5116 87.0651 31.0189 87.3226 31.5585 87.3226H55.7144C56.5081 87.3226 57.5982 86.9672 58.2844 85.2742C58.5831 84.5374 58.778 83.651 58.9847 82.7123C59.1857 81.7978 59.6571 79.6559 60.1259 79.3972C60.1262 79.3972 60.1536 79.3926 60.2198 79.4028C60.3066 79.4166 60.3945 79.4232 60.4824 79.4232C63.0122 79.4232 65.0793 79.538 66.903 79.639C72.252 79.9358 75.4808 80.115 78.3131 76.0354C79.7535 73.9604 79.5902 70.9341 79.4174 67.7302C79.3284 66.0789 79.2365 64.3745 79.3997 62.9576C79.6949 62.6667 80.4344 62.159 80.8981 61.8407C82.4934 60.745 84 59.7105 84 58.1376C84.0005 56.942 83.2774 55.3647 82.0978 52.8901ZM19.5039 35.38C16.1778 33.3426 14.1921 29.8007 14.1921 25.9052C14.1921 19.783 19.1729 14.8026 25.2949 14.8026C31.4171 14.8026 36.3977 19.7832 36.3977 25.9052C36.3977 29.8007 34.4122 33.3427 31.0859 35.3804C29.5052 36.3492 28.5656 37.4791 28.1197 39.0058L25.2944 39.0048L22.4704 39.0058C22.0241 37.4793 21.0848 36.3492 19.5039 35.38ZM27.8358 42.3906V44.8655H22.7543V42.3906H27.8358ZM22.7958 50.7246C22.777 50.7246 22.7543 50.7012 22.7543 50.6823V48.25H27.8358V50.6823C27.8358 50.7014 27.8129 50.7246 27.7938 50.7246H22.7958ZM78.9827 59.0504C77.5262 60.0508 76.2682 60.9146 76.0827 62.2216C75.8278 64.0147 75.9348 65.9962 76.038 67.9121C76.1663 70.2892 76.3115 72.9836 75.5331 74.105C73.8493 76.5307 72.3929 76.5542 67.0906 76.2596C65.3412 76.1625 63.1704 76.0422 60.5967 76.0384C59.6082 75.922 57.9358 76.1075 56.8198 78.2771C56.2529 79.3787 55.9483 80.7632 55.6795 81.9845C55.5445 82.5982 55.3548 83.4606 55.1771 83.9378H33.9947C34.0688 83.7508 34.1453 83.5581 34.2238 83.3604C36.6617 77.2222 38.2057 72.7201 35.8555 70.6884C30.8742 66.3801 27.6975 60.5463 26.7866 54.1091H27.794C29.6834 54.1091 31.2204 52.5718 31.2204 50.6823V46.5578V40.7833C31.3208 39.6961 31.6029 39.0332 32.8545 38.2661C36.8602 35.8121 39.3735 31.6835 39.7353 27.0639C43.8887 24.5957 48.6263 23.2937 53.4938 23.2937C61.557 23.2937 70.9664 28.2806 75.3806 34.8935C77.2725 37.7277 79.1 42.1368 77.0611 47.046C76.3971 48.6446 77.3817 50.8618 79.0428 54.3465C79.5806 55.4745 80.359 57.1075 80.5651 57.8704C80.2155 58.2039 79.4638 58.7201 78.9827 59.0504Z" fill="#9DD00D"/>
<path d="M33.5957 23.5143C33.0959 21.6621 31.8537 20.1787 30.0029 19.2238C29.1723 18.7958 28.1517 19.1214 27.7231 19.9523C27.2948 20.783 27.6207 21.8036 28.4514 22.2319C29.4619 22.7531 30.0758 23.4611 30.3279 24.3957C30.7271 25.8754 30.1234 27.4765 29.8584 27.8922C29.3559 28.6805 29.5876 29.7266 30.3757 30.2291C30.6576 30.4089 30.9725 30.4944 31.2837 30.4944C31.8427 30.4944 32.3896 30.2181 32.7121 29.7117C33.4341 28.5798 34.2649 25.9947 33.5957 23.5143Z" fill="#9DD00D"/>
<path d="M25.2949 0.679688C24.3603 0.679688 23.6027 1.43764 23.6027 2.37193V7.19616C23.6027 8.13044 24.3603 8.8884 25.2949 8.8884C26.2294 8.8884 26.9871 8.13044 26.9871 7.19616V2.37193C26.9871 1.43764 26.2294 0.679688 25.2949 0.679688Z" fill="#9DD00D"/>
<path d="M6.51849 24.2805H1.69425C0.759629 24.2805 0.00201416 25.0384 0.00201416 25.9727C0.00201416 26.9073 0.759629 27.6649 1.69425 27.6649H6.51866C7.45311 27.6649 8.21073 26.9073 8.21073 25.9727C8.21073 25.0384 7.45294 24.2805 6.51849 24.2805Z" fill="#9DD00D"/>
<path d="M17.3715 8.86386L14.9601 4.68776C14.4927 3.87836 13.4575 3.60134 12.6483 4.0684C11.8391 4.53579 11.5617 5.5706 12.0291 6.38L14.4405 10.5561C14.7541 11.0991 15.3227 11.4026 15.9075 11.4026C16.1947 11.4026 16.4858 11.3295 16.7521 11.1755C17.5615 10.7081 17.8389 9.67326 17.3715 8.86386Z" fill="#9DD00D"/>
<path d="M9.87842 15.1187L5.7018 12.7072C4.89257 12.2402 3.85743 12.5175 3.3902 13.3266C2.92281 14.136 3.20017 15.1708 4.00956 15.6382L8.18618 18.0496C8.45254 18.2036 8.7436 18.2767 9.0306 18.2767C9.61544 18.2767 10.1842 17.9733 10.4978 17.4303C10.9652 16.6212 10.6878 15.5861 9.87842 15.1187Z" fill="#9DD00D"/>
<path d="M47.2002 13.3265C46.7327 12.5171 45.6979 12.2398 44.8886 12.7072L40.712 15.1186C39.9026 15.586 39.6253 16.6211 40.0927 17.4302C40.4061 17.9732 40.9748 18.2767 41.5597 18.2767C41.8467 18.2767 42.1377 18.2035 42.4043 18.0496L46.5809 15.6381C47.3903 15.1707 47.6676 14.1359 47.2002 13.3265Z" fill="#9DD00D"/>
<path d="M10.4986 34.5154C10.0316 33.706 8.99694 33.429 8.18737 33.8957L4.00974 36.3072C3.20034 36.7742 2.92282 37.8094 3.39004 38.6188C3.70345 39.1618 4.27238 39.4652 4.85721 39.4652C5.14422 39.4652 5.43511 39.3921 5.70164 39.2385L9.8791 36.827C10.6885 36.36 10.966 35.3248 10.4986 34.5154Z" fill="#9DD00D"/>
<path d="M16.404 41.3724C15.595 40.9053 14.5598 41.1827 14.0924 41.9918L12.0289 45.5663C11.5617 46.3757 11.839 47.4108 12.6484 47.8779C12.915 48.0319 13.2059 48.105 13.4929 48.105C14.0777 48.105 14.6466 47.8016 14.96 47.2585L17.0236 43.684C17.4909 42.8746 17.2136 41.8398 16.404 41.3724Z" fill="#9DD00D"/>
<path d="M37.942 4.06837C37.1325 3.60097 36.0978 3.87833 35.6304 4.68772L33.219 8.86383C32.7516 9.67323 33.0288 10.7082 33.8382 11.1754C34.1047 11.3294 34.3958 11.4025 34.6828 11.4025C35.2676 11.4025 35.8364 11.0991 36.1499 10.5561L38.5614 6.37996C39.0288 5.57057 38.7514 4.53576 37.942 4.06837Z" fill="#9DD00D"/>
</svg>
