<svg width="79" height="87" viewBox="0 0 79 87" fill="none" xmlns="http://www.w3.org/2000/svg">
<path d="M76.224 45.4063C72.3181 41.5179 67.8026 45.1573 67.8026 45.1573V24.6873C67.8026 23.9999 67.2455 23.4422 66.5581 23.4422C65.87 23.4422 65.313 23.9999 65.313 24.6873V46.9089C65.313 46.9089 59.3759 51.5891 56.8241 52.7331V15.8761C56.8241 14.1628 58.2177 12.7691 59.931 12.7691H62.206C63.9193 12.7691 65.313 14.1628 65.313 15.8761V19.5901C65.313 20.2781 65.87 20.8352 66.5581 20.8352C67.2455 20.8352 67.8026 20.2781 67.8026 19.5901V15.8761C67.8026 12.7899 65.2922 10.2795 62.206 10.2795H59.931C56.8448 10.2795 54.3338 12.7899 54.3338 15.8761V53.7201C53.5913 53.9283 52.8293 54.0697 52.055 54.1442V27.8948C52.055 24.793 49.5317 22.2697 46.4305 22.2697H44.2107C41.1096 22.2697 38.5862 24.793 38.5862 27.8948V40.5808L36.3067 41.7909V37.5692C36.3067 34.7767 34.035 32.505 31.2432 32.505H27.9022C25.1097 32.505 22.8387 34.7767 22.8387 37.5692V48.94L18.7732 51.0976L7.35696 54.3602C5.37059 54.9276 3.71172 56.2285 2.68709 58.0223C1.66181 59.8167 1.3836 61.9062 1.9037 63.9055L3.1806 68.8186C3.3531 69.4839 4.03273 69.8827 4.69874 69.7102C5.36411 69.5371 5.76359 68.8575 5.59044 68.1914L4.31353 63.279C3.57294 60.4295 5.21041 57.5631 8.04177 56.7545L18.4794 53.7714L26.3244 74.7089C26.8496 76.111 26.7666 80.1109 22.6169 81.585L14.7291 83.3768C11.9801 84.0006 9.27133 82.3528 8.56187 79.6239L6.96072 73.4625C6.78757 72.7971 6.10794 72.3976 5.44258 72.5701C4.77656 72.7433 4.37774 73.4229 4.55024 74.0889L6.15204 80.251C7.05216 83.7127 10.1274 86 13.5508 86C16.0663 86 23.1687 84.013 23.1687 84.013C25.3302 83.5227 27.1732 82.1219 28.2245 80.1712C29.0922 78.5616 29.3496 76.7095 28.9774 74.9449L56.2664 68.2641C58.5231 67.7109 60.6658 66.6389 62.4608 65.1636L75.7409 54.2519C79.7895 50.6611 77.4147 46.5911 76.224 45.4063ZM44.2107 24.7599H46.4305C48.1588 24.7599 49.5647 26.1666 49.5647 27.8948V54.2065L41.7081 54.2033C40.9863 54.1968 41.4857 53.7201 41.5252 53.6877L43.7879 51.855C45.8987 50.1449 47.2775 47.7675 47.8851 44.7876C48.271 42.8973 47.5498 41.0049 46.0045 39.8493C44.5609 38.7702 42.7042 38.5627 41.0765 39.276V27.8948C41.0765 26.1666 42.4824 24.7599 44.2107 24.7599ZM25.3289 37.5692C25.3289 36.1502 26.4832 34.9953 27.9022 34.9953H31.2432C32.6622 34.9953 33.8171 36.1502 33.8171 37.5692V43.1126L25.3283 47.6184V37.5692H25.3289ZM74.1605 52.3284L60.8798 63.2401C59.3714 64.4801 57.5711 65.3808 55.6743 65.8452L28.1843 72.576L20.7913 52.8466L41.9001 41.6418C42.758 41.1859 43.7353 41.2617 44.5129 41.8434C45.2905 42.4252 45.6393 43.3395 45.4454 44.2902C44.9558 46.6891 43.8709 48.5833 42.2204 49.9199L39.9578 51.7532C39.0305 52.5042 38.6887 53.7162 39.0869 54.8414C39.4851 55.9659 40.5136 56.6935 41.7068 56.6935L50.7787 56.6974H50.7852C54.0148 56.6974 57.1185 55.7156 59.7605 53.8576L69.8992 46.728C71.3187 45.7293 73.2299 45.9057 74.4426 47.1469C75.141 47.8602 76.5081 49.9802 74.1605 52.3284Z" fill="#9DD00D" stroke="#9DD00D" stroke-width="0.8"/>
<path d="M21.5559 75.5065C21.5559 72.8016 19.3555 70.6006 16.6506 70.6006C13.9457 70.6006 11.7454 72.8016 11.7454 75.5065C11.7454 78.2108 13.9457 80.4118 16.6506 80.4118C19.3555 80.4118 21.5559 78.2108 21.5559 75.5065ZM14.2356 75.5065C14.2356 74.1745 15.3186 73.0908 16.6506 73.0908C17.982 73.0908 19.0657 74.1745 19.0657 75.5065C19.0657 76.8379 17.9827 77.9215 16.6506 77.9215C15.3186 77.9215 14.2356 76.8379 14.2356 75.5065Z" fill="#9DD00D" stroke="#9DD00D" stroke-width="0.8"/>
<path d="M7.69678 40.0937L25.7965 21.8545L29.8678 23.9602C31.3263 24.7144 33.1012 24.4563 34.2841 23.3176L44.1361 13.8339C44.1361 13.8339 43.8651 18.7048 47.9668 18.7048C50.0784 18.7048 51.7969 16.9862 51.7969 14.8741V4.83005C51.7969 4.81838 51.7962 4.80606 51.7962 4.79374C51.7826 2.17314 49.8663 1 47.9668 1H38.0104C35.8982 1 34.1803 2.71853 34.1803 4.83005C34.1803 9.04013 38.465 8.66011 38.465 8.66011L30.9488 15.8948L26.8185 13.7586C25.325 12.9856 23.5254 13.269 22.34 14.4623L2.25974 34.6975C0.772076 36.1968 0.781156 38.6268 2.28049 40.1144C3.00292 40.831 5.46983 42.3206 7.69678 40.0937ZM4.02691 36.4517L24.1071 16.2165C24.3665 15.9558 24.7829 15.4992 25.6746 15.9707L30.5973 18.5167C31.0714 18.7618 31.6486 18.6782 32.0331 18.3079L42.417 8.31251C42.7827 7.96038 42.8981 7.42082 42.7081 6.95001C42.5181 6.47855 42.0616 6.17051 41.5532 6.17051H38.0104C37.2717 6.17051 36.6706 5.56935 36.6706 4.83005C36.6706 4.09141 37.2717 3.49025 38.0104 3.49025H47.9668C48.3332 3.49025 49.306 3.49025 49.306 4.82227C49.306 4.8333 49.3066 4.84432 49.3066 4.85599V14.8741C49.3066 15.6127 48.7055 16.2139 47.9668 16.2139C47.2275 16.2139 46.6264 15.6127 46.6264 14.8741V10.9072C46.6264 10.4078 46.3281 9.95647 45.8689 9.76127C45.4098 9.56542 44.878 9.66399 44.5181 10.0103L32.5571 21.5238C32.1434 21.922 31.5221 22.0128 31.0124 21.7488L26.1292 19.2229C25.646 18.9732 25.0565 19.066 24.6733 19.4518L5.92962 38.3395C5.1125 39.1566 4.28696 38.5976 4.03404 38.3466C3.51005 37.8259 3.50681 36.9757 4.02691 36.4517Z" fill="#9DD00D" stroke="#9DD00D" stroke-width="0.8"/>
</svg>
