<svg width="87" height="87" viewBox="0 0 87 87" fill="none" xmlns="http://www.w3.org/2000/svg">
<path d="M43.5626 4.93485C50.3465 4.93485 57.1411 6.86047 63.212 10.504C67.0626 12.8208 70.5226 15.7325 73.462 19.1325L63.3199 18.798C62.1288 18.7582 61.1313 19.6923 61.0922 20.8841C61.053 22.0752 61.9865 23.0735 63.1783 23.1119L77.2107 23.5753C78.0167 23.9071 78.9434 23.7216 79.5599 23.1045C80.1757 22.4873 80.3598 21.5606 80.0266 20.7546L79.5646 6.72558C79.5376 5.53378 78.5495 4.58952 77.3577 4.61583C76.1666 4.6428 75.221 5.63091 75.248 6.82203C75.248 6.83821 75.248 6.85305 75.2493 6.86857L75.5164 14.9622C72.5474 11.7895 69.1541 9.04239 65.4331 6.80112C58.6917 2.7563 51.1288 0.618225 43.5626 0.618225C31.4761 0.618225 20.3324 5.60191 12.1888 14.6506C4.97466 22.6667 0.66748 33.4563 0.66748 43.5134C0.66748 44.7051 1.63333 45.6717 2.82579 45.6717C4.01826 45.6717 4.98411 44.7051 4.98411 43.5134C4.98411 34.4936 8.87649 24.7832 15.3973 17.5387C22.7126 9.412 32.7144 4.93485 43.5626 4.93485Z" fill="#9DD00D"/>
<path d="M25.1215 22.2545L22.2543 25.1218C21.9189 25.4573 21.9188 26.0013 22.2543 26.3371L27.5665 31.6493L27.2165 31.9993C25.9892 33.2266 25.989 35.2236 27.2165 36.4511L36.4254 45.6601L36.057 46.0285C35.7215 46.3641 35.7215 46.9081 36.057 47.2438C36.3926 47.5794 36.9367 47.5794 37.2724 47.2438L37.6407 46.8754L47.4948 56.7295L47.4949 56.7293C47.5693 56.8037 47.6573 56.8649 47.7563 56.9083L55.4785 60.3071L60.9199 65.7484C61.2554 66.084 61.7996 66.084 62.1352 65.7484L65.7483 62.1353C65.916 61.9675 66 61.7476 66 61.5277C66 61.3078 65.916 61.0879 65.7483 60.9201L60.3069 55.4787L56.9081 47.7565C56.8646 47.6576 56.8034 47.5695 56.7291 47.4952L56.7293 47.495L46.8751 37.6409L47.2435 37.2725C47.4112 37.1047 47.4952 36.8848 47.4952 36.6649C47.4952 36.445 47.4112 36.2251 47.2435 36.0572C46.9079 35.7217 46.3638 35.7217 46.0282 36.0572L37.6407 44.4447L31.1212 37.9253L37.9251 31.1215L39.5834 32.7798C39.919 33.1153 40.4631 33.1153 40.7988 32.7798C41.1342 32.4441 41.1342 31.9002 40.7988 31.5644L36.4508 27.2165C35.2235 25.9892 33.2265 25.9892 31.999 27.2165L31.649 27.5665L26.3368 22.2544C26.0012 21.9189 25.4571 21.9189 25.1215 22.2545ZM45.4208 52.2249C44.2675 51.0716 43.8245 49.4737 44.0893 47.9779L49.5601 53.4488L48.1023 54.9066L45.4208 52.2249ZM50.7755 52.2335L44.7714 46.2294C44.9549 45.9429 45.1706 45.6712 45.4209 45.4211C45.6711 45.1709 45.9427 44.9552 46.2292 44.7717L52.2333 50.7758L50.7755 52.2335ZM63.9253 61.5277L61.5275 63.9255L61.1641 63.5621C60.503 62.901 60.5031 61.8252 61.164 61.1643C61.8252 60.5033 62.9009 60.5032 63.5619 61.1643L63.9253 61.5277ZM61.4678 59.0702C60.911 59.2206 60.3849 59.5129 59.9487 59.9491C59.5126 60.3852 59.2203 60.9112 59.07 61.468L57.1876 59.5856L59.5853 57.1878L61.4678 59.0702ZM58.562 55.7806L55.7803 58.5622L49.5982 55.8413L55.8411 49.5984L58.562 55.7806ZM52.2246 45.421L54.9063 48.1026L53.4486 49.5604L47.9777 44.0896C49.4735 43.8247 51.0713 44.2677 52.2246 45.421ZM45.6598 38.8562L49.1068 42.303C47.3413 42.2269 45.5506 42.8607 44.2055 44.2058C42.8604 45.5509 42.2266 47.3414 42.3028 49.1069L38.856 45.6601L45.6598 38.8562ZM35.2356 28.432L36.7098 29.9062L29.906 36.7101L28.4317 35.2358C27.8746 34.6786 27.8745 33.7719 28.4317 33.2146L33.2144 28.432C33.7716 27.8747 34.6784 27.8747 35.2356 28.432ZM30.4338 28.782L28.7817 30.434L24.0772 25.7294L25.7292 24.0774L30.4338 28.782Z" fill="#9DD00D" stroke="#9DD00D"/>
<path d="M42.0661 34.9065C42.0661 35.1333 42.1581 35.3542 42.318 35.514C42.4777 35.6747 42.6994 35.7658 42.9254 35.7658C43.1514 35.7658 43.3731 35.6747 43.533 35.514C43.6928 35.3542 43.7848 35.1333 43.7848 34.9065C43.7848 34.6805 43.6929 34.4588 43.533 34.2989C43.3731 34.1392 43.1514 34.0472 42.9254 34.0472C42.6994 34.0472 42.4777 34.1391 42.318 34.2989C42.1581 34.4588 42.0661 34.6805 42.0661 34.9065Z" fill="#9DD00D" stroke="#9DD00D"/>
<path d="M84.8417 41.355C83.6492 41.355 82.6834 42.3209 82.6834 43.5134C82.6834 52.5324 78.791 62.2435 72.2702 69.4886C64.9549 77.6154 54.9531 82.0912 44.1049 82.0912C37.321 82.0912 30.5264 80.1669 24.4555 76.5234C20.6049 74.2059 17.1448 71.2942 14.2055 67.8949L24.3475 68.2294C25.5387 68.2679 26.5362 67.3337 26.5753 66.1426C26.6144 64.9515 25.681 63.9539 24.4892 63.9141L10.4568 63.4514C9.65078 63.1196 8.72405 63.3058 8.10759 63.9222C7.49179 64.5394 7.30766 65.4654 7.64085 66.2714L8.10286 80.3004C8.12984 81.4929 9.11795 82.4379 10.3097 82.4109C11.5009 82.3846 12.4465 81.3965 12.4195 80.2047C12.4195 80.1892 12.4195 80.1743 12.4181 80.1581L12.1511 72.0645C15.1201 75.2379 18.5134 77.9836 22.2344 80.2263C28.9758 84.2717 36.5386 86.4091 44.1049 86.4091C56.1914 86.4091 67.3351 81.4261 75.4787 72.3774C82.6928 64.3606 87 53.5711 87 43.5134C87 42.3209 86.0341 41.355 84.8417 41.355Z" fill="#9DD00D"/>
</svg>
