<svg width="84" height="84" viewBox="0 0 84 84" fill="none" xmlns="http://www.w3.org/2000/svg">
<g clip-path="url(#clip0)">
<path d="M64.5338 39.3701L64.5338 49.9171C64.5338 51.6995 63.7028 53.3172 62.254 54.3552C60.8048 55.3936 59.0056 55.6597 57.3187 55.0866L22.84 43.3753C22.2169 45.1365 20.5357 46.4019 18.5638 46.4019L16.547 46.4019L16.547 77.0948C16.547 78.6451 15.2857 79.9066 13.7351 79.9066L9.3637 79.9066C7.81331 79.9066 6.55184 78.6453 6.55184 77.0947L6.55184 45.9544C2.75626 44.7385 6.77161e-06 41.1775 7.50493e-06 36.9834L9.42377e-06 26.009L1.00386e-05 22.4928C1.09466e-05 17.2994 4.22528 13.0741 9.41867 13.0741L18.564 13.0741C20.5359 13.0741 22.217 14.3395 22.8401 16.1007L57.3187 4.38947C57.9031 4.19095 58.5004 4.09317 59.0924 4.09317C60.21 4.09317 61.3069 4.44213 62.2542 5.12086C63.703 6.15889 64.534 7.77654 64.534 9.55892L64.534 20.106C69.3446 20.676 73.0885 24.7769 73.0885 29.7381C73.0885 34.6994 69.3445 38.8001 64.5338 39.3701ZM9.83325 43.1208L9.83325 46.4021L9.83325 76.6254L13.2661 76.6254L13.2661 46.4019L13.2661 43.1207L13.2661 33.1188C13.2661 32.1723 12.4962 31.4024 11.5497 31.4024C10.6032 31.4024 9.83326 32.1723 9.83326 33.1188L9.83325 43.1208ZM19.8179 41.1733L19.8179 18.3029L19.8179 17.6095C19.8179 16.9179 19.2554 16.3554 18.564 16.3554L9.41867 16.3554C7.52244 16.3555 5.82472 17.2203 4.69794 18.5756L12.2953 18.5756C13.2013 18.5756 13.936 19.3103 13.936 20.2162C13.936 21.1222 13.2013 21.8569 12.2953 21.8569L3.31424 21.8569C3.29258 22.0659 3.28126 22.278 3.28126 22.4928L3.28126 24.3683L6.75495 24.3683C7.66091 24.3683 8.39558 25.103 8.39558 26.009C8.39558 26.9149 7.66091 27.6496 6.75495 27.6496L3.28126 27.6496L3.28126 36.9834C3.28126 39.3326 4.60852 41.3767 6.55201 42.4078L6.55201 33.1189C6.55201 30.3632 8.79392 28.1213 11.5497 28.1213C14.3054 28.1213 16.5473 30.3632 16.5473 33.1189L16.5473 43.1208L18.5642 43.1208C19.2555 43.1208 19.8181 42.5583 19.8181 41.8668L19.8181 41.1733L19.8179 41.1733ZM61.2529 37.8L61.2529 21.6767L61.2529 9.55941C61.2529 8.84819 60.9213 8.20277 60.3432 7.78868C59.765 7.37458 59.0472 7.26844 58.3741 7.49697L23.099 19.4786L23.099 39.9981L58.3742 51.9797C59.0472 52.2084 59.7652 52.1021 60.3432 51.688C60.9213 51.2739 61.2529 50.6285 61.2529 49.9173L61.2529 37.8ZM64.534 23.4197L64.534 36.0565C67.5288 35.5138 69.8073 32.887 69.8073 29.7381C69.8073 26.5894 67.5288 23.9626 64.534 23.4197Z" fill="#9DD00D"/>
<path d="M45.4991 42.2713L30.1401 37.5544C29.274 37.2883 28.7874 36.3705 29.0533 35.5044C29.2701 34.7986 29.9194 34.345 30.6213 34.345C30.7808 34.345 30.943 34.3686 31.1033 34.4176L46.4623 39.1346C47.3284 39.4007 47.815 40.3185 47.5491 41.1846C47.2831 42.0505 46.3654 42.5371 45.4991 42.2713Z" fill="#9DD00D"/>
<path d="M55.6431 43.8326C55.6021 43.9326 55.5527 44.0278 55.4922 44.1164C55.4331 44.2066 55.3642 44.2903 55.2887 44.3658C55.2133 44.4412 55.1296 44.5101 55.0392 44.5692C54.9506 44.6281 54.8554 44.6791 54.757 44.7201C54.6569 44.7612 54.5536 44.7922 54.4502 44.8137C54.2369 44.8563 54.0204 44.8563 53.8087 44.8137C53.7037 44.7922 53.6004 44.7612 53.5019 44.7201C53.402 44.6791 53.3068 44.6281 53.2183 44.5692C53.128 44.5101 53.0442 44.4412 52.9687 44.3658C52.8932 44.2903 52.8243 44.2066 52.7654 44.1164C52.7064 44.0278 52.6555 43.9326 52.6145 43.8326C52.5735 43.7341 52.5423 43.6309 52.521 43.5258C52.4997 43.4208 52.4882 43.3125 52.4882 43.2058C52.4882 43.0994 52.4997 42.9909 52.521 42.8843C52.5423 42.7809 52.5735 42.6777 52.6145 42.5775C52.6555 42.479 52.7064 42.3839 52.7654 42.2953C52.8243 42.2051 52.8932 42.1214 52.9687 42.0459C53.0442 41.9704 53.128 41.9015 53.2183 41.8408C53.3068 41.7818 53.402 41.7309 53.5019 41.6899C53.6005 41.6489 53.7037 41.6177 53.8087 41.5964C53.9139 41.5751 54.0222 41.5652 54.1286 41.5652C54.2353 41.5652 54.3437 41.5752 54.4502 41.5964C54.5536 41.6177 54.6569 41.6489 54.757 41.6899C54.8554 41.7309 54.9506 41.7818 55.0392 41.8408C55.1296 41.9015 55.2133 41.9704 55.2887 42.0459C55.3642 42.1214 55.4331 42.2051 55.4922 42.2953C55.5527 42.3839 55.6021 42.479 55.6431 42.5775C55.6841 42.6776 55.7168 42.7809 55.7383 42.8843C55.7596 42.9909 55.7693 43.0994 55.7693 43.2058C55.7693 43.3125 55.7594 43.4209 55.7383 43.5258C55.7168 43.6309 55.6841 43.7343 55.6431 43.8326Z" fill="#9DD00D"/>
<path d="M72.552 40.6439C72.7737 40.6439 72.9993 40.6892 73.2148 40.7847L83.0225 45.1243C83.8512 45.4908 84.2257 46.4599 83.8591 47.2883C83.4927 48.1168 82.5234 48.4917 81.6951 48.1248L71.8874 43.7852C71.0587 43.4187 70.6842 42.4496 71.0509 41.6212C71.3219 41.0085 71.9225 40.6439 72.552 40.6439Z" fill="#9DD00D"/>
<path d="M83.0227 14.3522L73.215 18.6918C72.3863 19.0586 71.4174 18.6839 71.051 17.8552C70.6844 17.0267 71.0589 16.0578 71.8876 15.6912L81.6952 11.3516C81.911 11.2561 82.1362 11.2109 82.3581 11.2109C82.9877 11.2109 83.5882 11.5754 83.8592 12.1882C84.2259 13.0167 83.8514 13.9856 83.0227 14.3522Z" fill="#9DD00D"/>
<path d="M81.8382 31.3787L76.3701 31.3787C75.4642 31.3787 74.7295 30.6441 74.7295 29.7381C74.7295 28.8321 75.4642 28.0975 76.3701 28.0975L81.8382 28.0975C82.7441 28.0975 83.4788 28.8321 83.4788 29.7381C83.4788 30.6441 82.7441 31.3787 81.8382 31.3787Z" fill="#9DD00D"/>
</g>
<defs>
<clipPath id="clip0">
<rect width="84" height="84" fill="white" transform="matrix(1 1.74846e-07 1.74846e-07 -1 0 84)"/>
</clipPath>
</defs>
</svg>
